<svg xmlns="http://www.w3.org/2000/svg" viewBox="0 0 801 558"><defs><style>.cls-1{fill:#ccc;}.cls-2{fill:#e74c3c;}.cls-2,.cls-3,.cls-4{opacity:0.71;}.cls-3{fill:#f1c40f;}.cls-4{fill:#2ecc71;}.cls-5{fill:#e6e6e6;}.cls-6{fill:#f2f2f2;}</style></defs><title>アセット 1</title><g id="レイヤー_2" data-name="レイヤー 2"><g id="Layer_1" data-name="Layer 1"><path class="cls-1" d="M801,23H0V5A5,5,0,0,1,5.05,0H796a5,5,0,0,1,5,5Z"/><path class="cls-2" d="M17.8,12.5a4.71,4.71,0,1,1-4.71-4.71A4.71,4.71,0,0,1,17.8,12.5Z"/><circle class="cls-3" cx="28.5" cy="12.5" r="4.71"/><path class="cls-4" d="M48.62,12.5a4.71,4.71,0,1,1-4.71-4.71A4.71,4.71,0,0,1,48.62,12.5Z"/><path class="cls-5" d="M167,9a2.9,2.9,0,0,0-3-2H73a3,3,0,0,0-3,2L66,21.47c-.34,1-2,1.53-2,1.53H173s-1.66-.44-2-1.53Z"/><path class="cls-6" d="M801,551.93a5.85,5.85,0,0,1-5.6,6.07H5.6A5.85,5.85,0,0,1,0,551.93V44H801Z"/><rect class="cls-5" y="23" width="801" height="21"/></g></g></svg>