<?xml version="1.0" standalone="no"?>
<!DOCTYPE svg PUBLIC "-//W3C//DTD SVG 20010904//EN"
 "http://www.w3.org/TR/2001/REC-SVG-20010904/DTD/svg10.dtd">
<svg version="1.0" xmlns="http://www.w3.org/2000/svg"
 width="170.000000pt" height="75.000000pt" viewBox="0 0 170.000000 75.000000"
 preserveAspectRatio="xMidYMid meet">

<g transform="translate(0.000000,75.000000) scale(0.100000,-0.100000)"
fill="#000000" stroke="none">
<path d="M250 375 c0 -327 2 -375 15 -375 13 0 15 48 15 375 0 327 -2 375 -15
375 -13 0 -15 -48 -15 -375z"/>
<path d="M300 375 c0 -243 4 -375 10 -375 6 0 10 132 10 375 0 243 -4 375 -10
375 -6 0 -10 -132 -10 -375z"/>
<path d="M350 375 c0 -243 4 -375 10 -375 6 0 10 132 10 375 0 243 -4 375 -10
375 -6 0 -10 -132 -10 -375z"/>
<path d="M440 375 c0 -243 4 -375 10 -375 6 0 10 132 10 375 0 243 -4 375 -10
375 -6 0 -10 -132 -10 -375z"/>
<path d="M490 375 l0 -375 30 0 30 0 0 375 0 375 -30 0 -30 0 0 -375z"/>
<path d="M560 375 c0 -368 0 -375 20 -375 20 0 20 7 20 375 0 368 0 375 -20
375 -20 0 -20 -7 -20 -375z"/>
<path d="M645 375 c0 -209 1 -296 2 -193 2 103 2 274 0 380 -1 106 -2 22 -2
-187z"/>
<path d="M690 375 l0 -375 25 0 25 0 0 375 0 375 -25 0 -25 0 0 -375z"/>
<path d="M760 375 c0 -327 2 -375 15 -375 13 0 15 48 15 375 0 327 -2 375 -15
375 -13 0 -15 -48 -15 -375z"/>
<path d="M830 375 c0 -243 4 -375 10 -375 6 0 10 132 10 375 0 243 -4 375 -10
375 -6 0 -10 -132 -10 -375z"/>
<path d="M880 375 l0 -375 30 0 30 0 0 375 0 375 -30 0 -30 0 0 -375z"/>
<path d="M970 375 c0 -368 0 -375 20 -375 20 0 20 7 20 375 0 368 0 375 -20
375 -20 0 -20 -7 -20 -375z"/>
<path d="M1020 375 c0 -243 4 -375 10 -375 6 0 10 132 10 375 0 243 -4 375
-10 375 -6 0 -10 -132 -10 -375z"/>
<path d="M1060 375 l0 -375 35 0 35 0 0 375 0 375 -35 0 -35 0 0 -375z"/>
<path d="M1150 375 l0 -375 25 0 25 0 0 375 0 375 -25 0 -25 0 0 -375z"/>
<path d="M1220 375 c0 -327 2 -375 15 -375 13 0 15 48 15 375 0 327 -2 375
-15 375 -13 0 -15 -48 -15 -375z"/>
<path d="M1310 375 l0 -375 25 0 25 0 0 375 0 375 -25 0 -25 0 0 -375z"/>
<path d="M1380 375 c0 -243 4 -375 10 -375 6 0 10 132 10 375 0 243 -4 375
-10 375 -6 0 -10 -132 -10 -375z"/>
<path d="M1410 375 c0 -368 0 -375 20 -375 20 0 20 7 20 375 0 368 0 375 -20
375 -20 0 -20 -7 -20 -375z"/>
</g>
</svg>
