<svg xmlns="http://www.w3.org/2000/svg" xmlns:xlink="http://www.w3.org/1999/xlink" width="250.177" height="252.258" viewBox="0 0 250.177 252.258"><defs><filter id="a" x="61" y="78" width="189.177" height="174.258" filterUnits="userSpaceOnUse"><feOffset input="SourceAlpha"/><feGaussianBlur stdDeviation="10" result="b"/><feFlood flood-color="#ff52de"/><feComposite operator="in" in2="b"/><feComposite in="SourceGraphic"/></filter><filter id="c" x="0" y="0" width="189.177" height="174.258" filterUnits="userSpaceOnUse"><feOffset input="SourceAlpha"/><feGaussianBlur stdDeviation="10" result="d"/><feFlood flood-color="#ff52de"/><feComposite operator="in" in2="d"/><feComposite in="SourceGraphic"/></filter></defs><g transform="translate(-1049.911 -685.871)"><g transform="matrix(1, 0, 0, 1, 1049.91, 685.87)" filter="url(#a)"><g transform="translate(120.97 108) rotate(22)" fill="none"><path d="M53.5,0,107,80H0Z" stroke="none"/><path d="M 53.5 8.994453430175781 L 9.358787536621094 75 L 97.64121246337891 75 L 53.5 8.994453430175781 M 53.5 0 L 107 80 L 0 80 L 53.5 0 Z" stroke="none" fill="#fffaff"/></g></g><g transform="matrix(1, 0, 0, 1, 1049.91, 685.87)" filter="url(#c)"><g transform="translate(59.97 30) rotate(22)" fill="none"><path d="M53.5,0,107,80H0Z" stroke="none"/><path d="M 53.5 8.994453430175781 L 9.358787536621094 75 L 97.64121246337891 75 L 53.5 8.994453430175781 M 53.5 0 L 107 80 L 0 80 L 53.5 0 Z" stroke="none" fill="#fffaff"/></g></g></g></svg>