<svg width="459" height="461" viewBox="0 0 459 461" fill="none" xmlns="http://www.w3.org/2000/svg">
<path d="M46 37L52.946 44.194L52.946 44.194L46 37ZM414 44.0002L407.342 51.4616L414 44.0002ZM40 418.5L47.2562 411.619L40 418.5ZM10.3106 317L20.3063 317.294L20.3089 317.188L10.3106 317ZM447.5 325L437.5 324.942L437.51 325.457L447.5 325ZM448.5 152L458.5 152.058L458.5 152H448.5ZM318.5 20C349.175 20 382.618 29.3997 407.342 51.4616L420.658 36.5388C391.426 10.4542 352.825 9.10228e-06 318.5 9.10228e-06V20ZM417.747 402.616C394.283 427.336 364.981 440 336.5 440L336.5 460C371.019 460 405.411 444.664 432.253 416.384L417.747 402.616ZM336.5 440C320.932 440 304.71 439.506 288.942 439.005C273.25 438.507 257.944 438 244.5 438V458C257.556 458 272.5 458.493 288.308 458.995C304.04 459.494 320.568 460 336.5 460L336.5 440ZM47.2562 411.619C33.5456 397.161 26.5186 374.292 23.1411 353.607C21.4885 343.485 20.7783 334.333 20.4834 327.715C20.3363 324.413 20.2933 321.759 20.2865 319.953C20.2832 319.051 20.2888 318.361 20.295 317.909C20.2981 317.683 20.3013 317.517 20.3035 317.413C20.3046 317.361 20.3055 317.325 20.306 317.305C20.3063 317.295 20.3065 317.289 20.3065 317.287C20.3065 317.286 20.3065 317.286 20.3065 317.287C20.3065 317.288 20.3065 317.289 20.3064 317.29C20.3064 317.292 20.3063 317.294 10.3106 317C0.314957 316.706 0.314881 316.709 0.314798 316.712C0.314761 316.713 0.314671 316.716 0.314597 316.719C0.314448 316.724 0.314273 316.73 0.314073 316.738C0.313672 316.752 0.313171 316.771 0.312587 316.794C0.31142 316.839 0.309921 316.901 0.308228 316.979C0.304843 317.135 0.300682 317.355 0.296851 317.636C0.28919 318.198 0.282841 319.004 0.286671 320.028C0.294329 322.076 0.342687 325.002 0.503203 328.605C0.823603 335.796 1.59401 345.754 3.40251 356.83C6.94739 378.54 14.7651 406.422 32.7438 425.381L47.2562 411.619ZM147.006 20C163.502 19.9909 285.995 20 318.5 20V9.10228e-06C286.005 9.10228e-06 163.498 -0.00909891 146.994 4.56687e-05L147.006 20ZM244.5 438C231.126 438 205.123 438.503 179.679 439.002C154.11 439.503 129.123 440 117.5 440L117.5 460C129.377 460 154.64 459.497 180.071 458.998C205.627 458.497 231.374 458 244.5 458V438ZM117.5 440C105.077 440 95.5258 440.525 84.8324 437.401C74.5204 434.388 62.4798 427.673 47.2562 411.619L32.7438 425.381C49.7615 443.327 64.7209 452.361 79.2236 456.599C93.3449 460.724 106.423 460 117.5 460L117.5 440ZM447.5 325C437.51 325.457 437.51 325.455 437.51 325.453C437.51 325.453 437.51 325.451 437.51 325.451C437.51 325.449 437.51 325.449 437.51 325.45C437.51 325.451 437.51 325.455 437.511 325.463C437.511 325.479 437.513 325.509 437.514 325.551C437.518 325.637 437.523 325.776 437.528 325.966C437.54 326.345 437.555 326.926 437.566 327.687C437.588 329.21 437.593 331.448 437.524 334.23C437.387 339.809 436.953 347.495 435.778 355.933C433.351 373.358 428.046 391.765 417.747 402.616L432.253 416.384C447.106 400.735 453.052 376.892 455.587 358.692C456.892 349.318 457.367 340.848 457.518 334.723C457.594 331.653 457.589 329.154 457.564 327.401C457.551 326.524 457.534 325.833 457.519 325.35C457.511 325.108 457.505 324.918 457.499 324.783C457.497 324.715 457.495 324.661 457.493 324.621C457.492 324.601 457.491 324.585 457.491 324.572C457.491 324.565 457.49 324.559 457.49 324.555C457.49 324.552 457.49 324.549 457.49 324.548C457.49 324.546 457.49 324.543 447.5 325ZM10.3106 317C20.3089 317.188 20.3089 317.187 20.3089 317.186C20.3089 317.185 20.309 317.183 20.309 317.181C20.3091 317.177 20.3092 317.17 20.3094 317.162C20.3097 317.144 20.3102 317.119 20.3108 317.084C20.3121 317.016 20.314 316.913 20.3166 316.778C20.3216 316.508 20.3292 316.106 20.339 315.581C20.3588 314.531 20.3878 312.988 20.4248 311.015C20.499 307.069 20.6055 301.403 20.7349 294.524C20.9937 280.766 21.3441 262.157 21.7106 242.751C22.4438 203.935 23.2409 161.944 23.498 149.202L3.50203 148.798C3.24468 161.557 2.44718 203.565 1.71422 242.374C1.34769 261.78 0.997236 280.39 0.738417 294.148C0.609007 301.027 0.502505 306.693 0.428355 310.639C0.39128 312.612 0.362294 314.156 0.342575 315.206C0.332716 315.731 0.325174 316.132 0.320097 316.403C0.317558 316.538 0.315636 316.64 0.314348 316.709C0.313704 316.743 0.313219 316.769 0.312895 316.786C0.312732 316.795 0.31261 316.801 0.312529 316.806C0.312488 316.808 0.312458 316.81 0.312437 316.811C0.312417 316.812 0.312407 316.812 10.3106 317ZM23.498 149.202C24.0566 121.505 16.9444 78.9543 52.946 44.194L39.0541 29.806C-4.3819 71.7443 3.97211 125.495 3.50203 148.798L23.498 149.202ZM52.946 44.194C65.2648 32.2999 83.9638 26.0008 102.826 22.8683C121.453 19.7748 138.649 20.0047 147.006 20L146.994 4.56687e-05C138.852 0.0045576 120.047 -0.265609 99.5493 3.13854C79.2863 6.5037 55.7352 13.7 39.0541 29.806L52.946 44.194ZM407.342 51.4616C422.125 64.6525 429.7 78.0632 433.764 93.594C437.955 109.613 438.5 128.127 438.5 152H458.5C458.5 128.373 458.046 107.387 453.112 88.5314C448.051 69.1873 438.375 52.3481 420.658 36.5388L407.342 51.4616ZM438.501 151.942L437.5 324.942L457.5 325.058L458.5 152.058L438.501 151.942Z" fill="#303030"/>
<path d="M332.015 233.5C332.015 290.1 287.486 337 226 337C195.029 337 171.436 326.017 155.513 308.56C139.482 290.986 130.5 266.037 130.5 237C130.5 179.812 175.467 131 231.515 131C262.695 131 287.582 140.577 304.649 157.532C321.698 174.468 332.015 199.832 332.015 233.5Z" stroke="#303030" stroke-width="20"/>
<path d="M385 100.5C385 115.688 374.419 127 358.122 127C341.824 127 330 115.688 330 100.5C330 85.3122 340.5 73 358.122 73C373.689 73 385 81 385 100.5Z" fill="#303030"/>
</svg>
