<svg width="511" height="508" viewBox="0 0 511 508" fill="none" xmlns="http://www.w3.org/2000/svg">
<path d="M280 357.5C308.757 387.407 368 446.5 368 446.5L407.5 488.5L501 496.5C501 484.428 501 411.5 501 411.5L479.5 390L417 404L431 344L372.5 361.5L393.5 295C389.634 291.41 329.96 238.284 327.5 233.5C331.271 223.961 335.32 177.476 335 160.5C334.857 152.916 334.751 139.12 332 132C328.696 123.447 319.5 96 310 82C296.817 62.5719 263.5 34.5 228.591 16.739C208.664 8.94114 184.045 10.1203 162.79 11.5373C148.023 12.5218 137.807 15.7097 124 20.5C112.281 24.5658 95.8989 32.0403 85.22 38.651C59 57.5 44.5 74 23.0001 109C15.6135 121.025 11.1637 140.423 11 154.5C10.6572 183.987 12.9714 210 23 229.5C29.7487 242.622 56 303 118.771 323.5C141 333.846 161.213 335.5 198 335.5C204.472 335.5 243 318.5 243 318.5L280 357.5ZM280 357.5C277.384 354.753 297.5 375 280 357.5Z" stroke="#303030" stroke-width="20" stroke-linecap="round"/>
<path d="M121.802 159.215C116.182 159.215 109.291 156.221 105.771 151.527C100.98 145.138 97.0451 136.158 97.0451 127.965C97.0451 121.26 97.233 115.295 100.495 109.273C107 100.592 118.575 93.2139 121.802 92.5C129.755 90.7404 139.145 92.7998 155 100.592C161.145 108.3 163.329 109.316 164.822 115.113C166.629 122.129 161.233 144.473 153.233 153C144.233 160.689 124.581 159.215 118.961 159.215" stroke="#303030" stroke-width="20" stroke-linecap="round"/>
</svg>
