<svg width="579" height="467" viewBox="0 0 579 467" fill="none" xmlns="http://www.w3.org/2000/svg">
<path d="M18.5 454C17.5 453.5 10.5 25.5 10.5 25.5C11.5 22.5 14 16.8221 17 16.8221C200.396 11.8373 556.594 5.14171 564.5 17C572.5 29 567.833 289 564.5 417.5C564.5 417.5 25 457 24 457C23 457 19.5 454.5 18.5 454Z" stroke="#303030" stroke-width="20"/>
<path d="M18 29C18 29 279 279 292.5 270.5C295.346 268.708 309.099 256.542 329.036 238.453M565 20C565 20 403.681 170.73 329.036 238.453M22 448C26 443.5 241.134 234 241.134 234C241.134 234 288.5 270.71 291.5 270.71C292.187 270.71 329.036 238.453 329.036 238.453M562 418.5C497.898 368.669 387.75 283.281 329.036 238.453" stroke="#303030" stroke-width="20"/>
</svg>
