<svg xmlns="http://www.w3.org/2000/svg" width="1200" height="450" viewBox="0 0 1200 450"><defs><style>.cls-1,.cls-2,.cls-23,.cls-24,.cls-25,.cls-26,.cls-27,.cls-28,.cls-4,.cls-5,.cls-6,.cls-7,.cls-8,.cls-9{fill:none;}.cls-1,.cls-10,.cls-11,.cls-12,.cls-13,.cls-14,.cls-15,.cls-16,.cls-17,.cls-18,.cls-19,.cls-2,.cls-20,.cls-21,.cls-22,.cls-23,.cls-24,.cls-25,.cls-26,.cls-27,.cls-28,.cls-4,.cls-5,.cls-6,.cls-7,.cls-8,.cls-9{stroke:#000;}.cls-1,.cls-10,.cls-11,.cls-12,.cls-13,.cls-14,.cls-15,.cls-16,.cls-17,.cls-18,.cls-19,.cls-2,.cls-21,.cls-22,.cls-23,.cls-24,.cls-25,.cls-26,.cls-27,.cls-28,.cls-5,.cls-6,.cls-7,.cls-8{stroke-miterlimit:10;}.cls-1,.cls-22{stroke-width:0.588px;}.cls-12,.cls-2,.cls-20,.cls-4{stroke-width:0.595px;}.cls-10,.cls-11,.cls-12,.cls-13,.cls-14,.cls-15,.cls-16,.cls-17,.cls-18,.cls-19,.cls-20,.cls-21,.cls-22,.cls-3{fill:#fff;}.cls-20,.cls-4,.cls-9{stroke-linecap:round;stroke-linejoin:round;}.cls-21,.cls-5{stroke-width:0.446px;}.cls-6{stroke-width:0.401px;}.cls-16,.cls-7,.cls-9{stroke-width:0.297px;}.cls-17,.cls-8{stroke-width:0.238px;}.cls-10{stroke-width:0.133px;}.cls-11{stroke-width:0.132px;}.cls-13{stroke-width:0.416px;}.cls-14{stroke-width:0.476px;}.cls-15{stroke-width:0.357px;}.cls-18{stroke-width:0.178px;}.cls-19{stroke-width:0.161px;}.cls-23{stroke-width:0.59px;}.cls-24{stroke-width:0.725px;}.cls-25{stroke-width:0.749px;}.cls-26{stroke-width:0.74px;}.cls-27{stroke-width:0.299px;}.cls-28{stroke-width:0.291px;}</style></defs><g id="レイヤー_3" data-name="レイヤー 3"><rect x="-199.166" y="-224.862" width="1598.771" height="900.838"/></g><g id="レイヤー_2" data-name="レイヤー 2"><line class="cls-1" x1="744.173" y1="139.985" x2="747.92" y2="141.38"/><line class="cls-2" x1="853.067" y1="335.195" x2="852.754" y2="324.563"/><polygon class="cls-3" points="894.324 182.831 894.246 213.036 873.427 213.512 873.422 213.512 867.396 209.509 889.773 209.2 889.399 186.025 887.846 186.055 835.793 187.03 835.793 187.477 834.425 187.477 834.395 184.264 894.324 182.831"/><polygon class="cls-3" points="889.399 186.025 889.773 209.2 867.396 209.509 867.39 209.509 864.785 207.778 887.87 207.385 887.87 187.233 887.846 186.055 889.399 186.025"/><path class="cls-3" d="M875.712,203.858V206.8l.6-.011.006-1.345h.173l.749,1.249h.494v-.577l-.208-.006-.44-.743a.861.861,0,0,0,.529-.738c0-.529-.214-.761-.488-.773S875.807,203.858,875.712,203.858Zm12.158-16.625v20.152l-23.085.393-.881-.583h1.237V206.7H863.7v-.868h1.41v-.541h-1.44v-.548h1.517V204.3s-2.076-.006-2.1.018v2.338l-.648-.429.214-1.832h-.375l-.244,1.4-.321-1.207h-.446l-.214.714-.345-.227-.125-.713-.565.012.048.273-.577-.38v.249l-.589.006h-.494l-.381.8-.523-.832-.512.017.7,1.333v1.535h.667l0,.517-12.568.214v-1.148l.077.482h.446l.292-1.178.244-.006.327,1.154h.482l.481-2.831-.529.024-.256,1.225-.321-.958-.553.006-.3.94-.261-1.249h-.131v-.732l-.012-.945,38.289-.548-.048-.41-.957.018-.024-1.446V196.6l-1.16.036v.482h-1.338l-.006-.827-3.29.018-.422-.655v-1.284h-4.33v-1.571h3.931v-1.4H872.3v-1.427h4.45v-1.219h-6.091l-.03-1.012Zm-4.426,5.335,2.338-.244-1.844-1.011.476-1.719-1.63.845-1.868-.875.637,2.064-1.606,1.065,2.207-.047.594,2.046Zm1.19,11.6v-.446s-2.082-.006-2.1.018v2.879h2.052v-.494h-1.439v-.868h1.41v-.541h-1.44v-.548Zm-2.427-.047v-.411l-2.32.09v.38h.881v2.558h.678l-.03-2.588Zm-2.338,2.641-.588-2.9-.643-.012-.541,2.885h.464l.018-.339h.791l.077.363Zm-6.227-1.38.565-1.356H873.7l-.392.82-.542-.856-.529.018.72,1.374.006,1.582h.684Zm-1.511,1.636V206.5H870.81v-2.54a2.976,2.976,0,0,0-.517,0v.185H869.8l-.69.017-.494.97v-.993h-.66l-.012,2.974h.643v-.976l.594.988.69-.024.423-.077Zm-4.479-2.368v-.44s-2.082-.012-2.106.012v2.885H867.6v-.5h-1.439v-.868h1.409V205.2h-1.439v-.547Zm-10.88,2.695v-.482h-.946v-2.3l-.481-.012v2.79Zm-2.111.006.017-2.85-.38.012-.024,2.838Zm-1.172-.024-.565-2.754-.6-.006-.518,2.736h.441l.071-.309h.636l.137.333Zm-2.148-1.3a3.076,3.076,0,0,0-.434-1.4l-1.308-.006v2.719h1.154A2.212,2.212,0,0,0,851.341,206.035Z"/><polygon class="cls-3" points="887.846 186.055 887.87 187.233 870.632 187.732 855.434 188.178 848.445 188.381 837.66 188.696 837.66 208.242 845.792 208.105 845.792 209.812 835.793 209.949 835.793 187.477 835.793 187.03 887.846 186.055"/><polygon class="cls-3" points="885.782 192.324 883.444 192.568 882.748 194.692 882.154 192.646 879.947 192.693 881.553 191.628 880.916 189.564 882.784 190.439 884.414 189.594 883.938 191.313 885.782 192.324"/><path class="cls-3" d="M884.634,203.727v.446h-1.517v.548h1.44v.541h-1.41v.868h1.439v.494h-2.052v-2.879C882.552,203.721,884.634,203.727,884.634,203.727Z"/><polygon class="cls-3" points="860.799 320.266 859.782 229.894 859.598 213.821 873.422 213.512 873.427 213.512 873.535 213.584 884.158 220.846 884.158 224.629 883.254 225.123 884.075 228.169 884.075 323.746 862.732 331.52 853.477 335.22 831.938 331.752 834.966 332.18 834.906 323.692 852.591 324.489 860.805 320.748 860.799 320.266"/><polygon class="cls-3" points="884.021 201.931 884.069 202.341 845.78 202.889 840.914 202.96 840.914 202.728 855.458 202.46 883.064 201.949 884.021 201.931"/><path class="cls-3" d="M863.416,188.72v6.906h5.86v-1.291h-4.337V192.77h3.938v-1.409h-4.122v-1.428H869.2v-1.219ZM883.04,200.5l.024,1.446-27.606.511-.03-1.57V200.8h3.706v-.649h-1.886V199h1.85V198.3h-1.886v-.713h1.981V197s-1.832-.006-2.5.012l-.018-1.178.619-.012.024-3.075h.523l2.308,2.855h1.517v-1.321l-.643-.006-1.35-1.7s1.63-.488,1.63-1.7-.654-1.731-1.511-1.761c-.8-.023-3.932,0-4.33,0V188.9l-.024-.726,15.2-.446.03,1.012h.309v6.905h5.853l.422.655.012.589.066,3.747h.963v-1.921h2.207v-.75H878.24v-.856h3.64v3.39Zm-7.239.03v-3.908l-1.166.036v3.872Zm-3.391.024.809-3.783h-.94l-.434,2.183L871,196.893H869.74l-.857,2.141-.672-2.272h-.994l1.024,3.825h.927l.875-2.255h.511l.7,2.225Zm-7.233.19.208-.642-.844-.351s.363-.417.374-.423-.428-.327-.434-.327a3.192,3.192,0,0,1-.446.333c-.018,0-.256-.7-.345-.815-.071-.083.565-.469.595-1.153.03-.572-.726-.827-1.118-.8,0,0-.982.322-.982.756a2.822,2.822,0,0,0,.345,1.053,1.563,1.563,0,0,0-.934,1.3c-.018.911.589,1.03.589,1.03H863.7l.357-.363Z"/><polygon class="cls-3" points="883.04 196.595 883.04 200.503 881.88 200.503 881.88 197.113 881.88 196.631 883.04 196.595"/><polygon class="cls-3" points="882.207 203.715 882.207 204.126 881.416 204.155 881.446 206.743 880.768 206.743 880.768 204.185 879.887 204.185 879.887 203.805 882.207 203.715"/><polygon class="cls-3" points="880.536 196.286 880.542 197.113 878.24 197.113 878.24 197.969 880.494 197.969 880.494 198.719 878.287 198.719 878.287 200.64 877.324 200.64 877.258 196.893 877.246 196.304 880.536 196.286"/><path class="cls-3" d="M879.281,203.87l.588,2.9h-.422l-.077-.363h-.791l-.018.339H878.1l.541-2.885Zm.083,2.129-.226-1.213h-.315l-.191,1.2Z"/><polygon class="cls-3" points="879.138 204.786 879.364 205.999 878.632 205.988 878.823 204.786 879.138 204.786"/><path class="cls-3" d="M876.312,204.3v.655h.554a.094.094,0,0,0,.083-.066.872.872,0,0,0,.041-.273.581.581,0,0,0-.071-.316Zm1.422,1.82v.577h-.494l-.749-1.249h-.173l-.006,1.345-.6.011v-2.944c.1,0,1.148-.012,1.415,0s.488.244.488.773a.861.861,0,0,1-.529.738l.44.743Z"/><path class="cls-3" d="M876.99,204.614a.872.872,0,0,1-.041.273.094.094,0,0,1-.083.066h-.554V204.3h.607A.581.581,0,0,1,876.99,204.614Z"/><polygon class="cls-3" points="876.824 194.365 876.824 195.649 870.971 195.649 870.971 188.791 870.971 188.744 876.753 188.744 876.753 189.963 872.303 189.963 872.303 191.39 876.425 191.39 876.425 192.794 872.494 192.794 872.494 194.365 876.824 194.365"/><polygon class="cls-3" points="875.801 196.625 875.801 200.533 874.635 200.533 874.635 196.661 875.801 196.625"/><polygon class="cls-3" points="874.207 204.031 873.642 205.387 873.642 206.969 872.958 206.969 872.952 205.387 872.232 204.013 872.761 203.995 873.303 204.851 873.695 204.031 874.207 204.031"/><polygon class="cls-3" points="867.396 209.509 873.422 213.512 859.598 213.821 859.55 209.622 867.39 209.509 867.396 209.509"/><polygon class="cls-3" points="873.219 196.774 872.41 200.557 871.256 200.557 870.554 198.332 870.043 198.332 869.168 200.587 868.241 200.587 867.217 196.762 868.211 196.762 868.883 199.034 869.74 196.893 871.001 196.893 871.845 198.957 872.279 196.774 873.219 196.774"/><path class="cls-3" d="M872.131,206.5v.524h-1.838v-3.064a2.976,2.976,0,0,1,.517,0v2.54Z"/><polygon class="cls-3" points="870.293 204.144 870.293 207.023 869.87 207.1 869.05 205.702 869.799 204.144 870.293 204.144"/><polygon class="cls-3" points="869.05 205.702 869.87 207.1 869.18 207.124 868.586 206.136 868.586 207.112 867.943 207.112 867.955 204.138 868.615 204.138 868.615 205.131 869.109 204.161 869.799 204.144 869.05 205.702"/><polygon class="cls-3" points="869.276 194.335 869.276 195.626 863.416 195.626 863.416 188.761 863.416 188.72 869.204 188.714 869.204 189.933 864.755 189.933 864.755 191.361 868.877 191.361 868.877 192.77 864.939 192.77 864.939 194.335 869.276 194.335"/><path class="cls-3" d="M867.652,204.215v.44h-1.517v.547h1.439v.542h-1.409v.868H867.6v.5h-2.058v-2.885C865.57,204.2,867.652,204.215,867.652,204.215Z"/><polygon class="cls-3" points="867.39 209.509 859.55 209.622 859.532 207.867 864.785 207.778 867.39 209.509"/><path class="cls-3" d="M865.385,200.105l-.208.642-1.118-.41-.357.363h-1.517s-.607-.119-.589-1.03a1.563,1.563,0,0,1,.934-1.3,2.822,2.822,0,0,1-.345-1.053c0-.434.982-.756.982-.756.392-.023,1.148.232,1.118.8-.03.684-.666,1.07-.595,1.153.089.113.327.815.345.815a3.192,3.192,0,0,0,.446-.333c.006,0,.434.321.434.327s-.374.423-.374.423Zm-1.945-.292-.559-.815s-.535.482-.535.684.375.595.607.494A1.948,1.948,0,0,0,863.44,199.813Zm-.172-1.862a.46.46,0,0,0,.357-.356c0-.256-.333-.351-.333-.351a.369.369,0,0,0-.363.351C862.941,197.749,863.107,197.957,863.268,197.951Z"/><path class="cls-3" d="M865.189,204.3v.446h-1.517v.548h1.44v.541H863.7v.868h1.439v.494H863.9l-.815-.541v-2.338C863.113,204.292,865.189,204.3,865.189,204.3Z"/><polygon class="cls-3" points="864.785 207.778 859.532 207.867 859.491 204.518 859.491 204.269 860.068 204.649 860.074 204.655 860.538 207.237 860.984 207.237 861.418 206.077 861.596 206.083 861.846 207.207 862.328 207.207 862.441 206.225 863.089 206.654 863.089 207.195 863.904 207.195 864.785 207.778"/><polygon class="cls-3" points="863.904 207.195 863.089 207.195 863.089 206.654 863.904 207.195"/><path class="cls-3" d="M862.881,199l.559.815a1.948,1.948,0,0,1-.487.363c-.232.1-.607-.3-.607-.494S862.881,199,862.881,199Z"/><path class="cls-3" d="M863.625,197.6a.46.46,0,0,1-.357.356c-.161.006-.327-.2-.339-.356a.369.369,0,0,1,.363-.351S863.625,197.339,863.625,197.6Z"/><polygon class="cls-3" points="862.655 204.393 862.441 206.225 861.055 205.304 861.269 204.59 861.715 204.59 862.036 205.797 862.28 204.393 862.655 204.393"/><polygon class="cls-3" points="862.441 206.225 862.328 207.207 861.846 207.207 861.596 206.083 861.418 206.077 860.984 207.237 860.538 207.237 860.074 204.655 860.71 205.077 860.865 205.946 861.055 205.304 862.441 206.225"/><path class="cls-3" d="M857.29,190.118v1.5H859a.265.265,0,0,0,.238-.148,1.457,1.457,0,0,0,.143-.631,1.043,1.043,0,0,0-.232-.719Zm4.372,4.163V195.6h-1.517l-2.308-2.855h-.523l-.024,3.075-.619.012-1.225.018.012-6.74c.4,0,3.533-.023,4.33,0,.857.03,1.511.553,1.511,1.761s-1.63,1.7-1.63,1.7l1.35,1.7Z"/><polygon class="cls-3" points="861.055 205.304 860.865 205.946 860.71 205.077 861.055 205.304"/><polygon class="cls-3" points="847.059 322.853 852.24 322.717 858.176 320.242 860.799 320.266 860.805 320.748 852.591 324.489 834.906 323.692 834.9 323.175 847.005 322.853 847.059 322.853"/><polygon class="cls-3" points="859.782 229.894 860.799 320.266 858.176 320.242 852.24 322.717 847.059 322.853 846.874 306.882 846.393 229.971 846.393 229.953 859.675 229.894 859.782 229.894"/><polygon class="cls-3" points="860.585 204.364 860.71 205.077 860.074 204.655 860.068 204.649 860.02 204.376 860.585 204.364"/><polygon class="cls-3" points="859.598 213.821 859.782 229.894 859.675 229.894 859.491 219.686 845.792 219.562 845.792 219.282 845.792 214.137 859.598 213.821"/><polygon class="cls-3" points="846.393 229.953 846.393 229.971 844.471 230.019 844.471 219.55 845.792 219.562 859.491 219.686 859.675 229.894 846.393 229.953"/><polygon class="cls-3" points="859.55 209.622 859.598 213.821 845.792 214.137 845.792 209.812 859.55 209.622"/><polygon class="cls-3" points="859.532 207.867 859.55 209.622 845.792 209.812 845.792 208.105 858.36 207.891 859.532 207.867"/><polygon class="cls-3" points="859.491 204.518 859.532 207.867 858.36 207.891 858.355 207.374 858.355 205.839 858.902 204.524 859.491 204.518"/><path class="cls-3" d="M859.384,190.843a1.457,1.457,0,0,1-.143.631.265.265,0,0,1-.238.148H857.29v-1.5l1.862.006A1.043,1.043,0,0,1,859.384,190.843Z"/><path class="cls-3" d="M859.193,197v.583h-1.981v.713H859.1V199h-1.85v1.142h1.886v.649h-2.689v-3.771a1.239,1.239,0,0,1,.244-.012C857.361,196.994,859.193,197,859.193,197Z"/><polygon class="cls-3" points="858.902 204.524 858.355 205.839 858.355 207.374 857.688 207.374 857.688 205.839 856.992 204.506 857.504 204.489 858.027 205.321 858.408 204.524 858.902 204.524"/><polygon class="cls-3" points="856.772 206.868 856.772 207.35 855.345 207.35 855.345 204.56 855.826 204.572 855.826 206.868 856.772 206.868"/><path class="cls-3" d="M851.877,197.119h-2.635l-.006-1.035,1.142-.006V193.1h2.867v-1.232h-2.921v-1.534l3.385-.054v-1.023l-5.235.042-.029-.922,6.989-.2.024.726v.208l-.012,6.74,1.225-.018.018,1.178a1.239,1.239,0,0,0-.244.012V200.8h-1.017v-.559h-1.66v-3.183a3.042,3.042,0,0,0-.654,0v1.059H852.3v-.018A1.693,1.693,0,0,0,851.877,197.119Z"/><path class="cls-3" d="M855.428,200.89l.03,1.57-14.544.268v.232l4.866-.071.012.945v.732l-.381.006.381,2.385v1.148l-8.132.137V188.7l10.785-.315.029.922-.083,6.787.845-.006.006,1.035v3.854h2.468a1.605,1.605,0,0,0,.571-.975,1.949,1.949,0,0,0-.422-1.018,1.442,1.442,0,0,0,.44-.868h.815v2.778Zm-6.977.238-1.493-4.045h-.447l-1.171,4h.648l.161-.726h1.374l.22.768Zm-5-7.62,2.332-.244-1.838-1.011.476-1.719-1.636.845-1.862-.881.637,2.07-1.607,1.065,2.2-.048.6,2.047Zm1.13,14.068c.714-.512.845-3.391-.547-3.046C842.413,204.691,842.6,208.242,844.584,207.576Zm-.208-6.7a1.446,1.446,0,0,0,.309-1.16l-.737.006s.083.857-.583.857-1.154-.256-1.154-1.077.131-1.63,1.047-1.612a2.356,2.356,0,0,1,.987.285,3.258,3.258,0,0,0,.3-.4c.035-.059-.209-.315-.286-.363a2.116,2.116,0,0,0-1.3-.3,1.47,1.47,0,0,0-.38.095,2.046,2.046,0,0,0-1.131,2.01,2.244,2.244,0,0,0,.476,1.493,1.918,1.918,0,0,0,1.446.518A1.488,1.488,0,0,0,844.376,200.878Zm-1.749,6.71v-.339l-1.225.011-.048-2.742-.428.036v3.063Z"/><path class="cls-3" d="M855.428,200.8v.095h-2.314v-3.837a3.042,3.042,0,0,1,.654,0v3.183h1.66Z"/><polygon class="cls-3" points="854.678 204.506 854.661 207.356 854.274 207.356 854.298 204.518 854.678 204.506"/><polygon class="cls-3" points="853.709 189.261 853.709 190.284 850.324 190.338 850.324 191.872 853.245 191.872 853.245 193.104 850.378 193.104 850.378 196.078 849.236 196.084 848.391 196.09 848.474 189.303 853.709 189.261"/><path class="cls-3" d="M852.924,204.578l.565,2.754h-.4l-.137-.333h-.636l-.071.309h-.441l.518-2.736Zm-.066,1.992-.113-1.011h-.2l-.167,1.011Z"/><polygon class="cls-3" points="852.745 205.559 852.858 206.57 852.376 206.57 852.543 205.559 852.745 205.559"/><path class="cls-3" d="M852.3,198.094v.018a1.442,1.442,0,0,1-.44.868,1.949,1.949,0,0,1,.422,1.018,1.605,1.605,0,0,1-.571.975h-2.468v-3.854h2.635A1.693,1.693,0,0,1,852.3,198.094Zm-.827,1.921c0-.428-.083-.624-1.362-.624v.88S851.472,200.45,851.472,200.015ZM851.4,198.3c0-.386-.012-.541-1.273-.541v.833S851.4,198.689,851.4,198.3Z"/><path class="cls-3" d="M850.11,199.391c1.279,0,1.362.2,1.362.624s-1.362.256-1.362.256Z"/><path class="cls-3" d="M850.122,197.755c1.261,0,1.273.155,1.273.541s-1.273.292-1.273.292Z"/><path class="cls-3" d="M850.907,204.637a3.076,3.076,0,0,1,.434,1.4,2.212,2.212,0,0,1-.588,1.315H849.6v-2.719Zm.048,1.434c.012-.446-.048-.857-.2-.946a2.14,2.14,0,0,0-.69-.071l-.018,1.9h.47A1.642,1.642,0,0,0,850.955,206.071Z"/><path class="cls-3" d="M850.759,205.125c.148.089.208.5.2.946a1.642,1.642,0,0,1-.434.886h-.47l.018-1.9A2.14,2.14,0,0,1,850.759,205.125Z"/><path class="cls-3" d="M846.958,197.083l1.493,4.045h-.708l-.22-.768h-1.374l-.161.726h-.648l1.171-4Zm.345,2.73-.494-1.439h-.042l-.446,1.439Z"/><polygon class="cls-3" points="848.141 204.578 847.66 207.409 847.178 207.409 846.851 206.255 846.607 206.261 846.315 207.439 845.869 207.439 845.792 206.957 845.792 204.566 845.923 204.566 846.184 205.815 846.482 204.875 847.035 204.869 847.356 205.827 847.612 204.602 848.141 204.578"/><polygon class="cls-3" points="846.809 198.374 847.303 199.813 846.321 199.813 846.767 198.374 846.809 198.374"/><polygon class="cls-3" points="847.005 322.853 834.9 323.175 834.9 323.068 834.9 235.556 834.692 214.392 845.792 214.137 845.792 219.282 845.792 219.562 844.471 219.55 844.471 230.019 846.393 229.971 846.874 306.882 847.059 322.853 847.005 322.853"/><polygon class="cls-3" points="845.792 209.812 845.792 214.137 834.692 214.392 834.425 187.477 835.793 187.477 835.793 209.949 845.792 209.812"/><polygon class="cls-3" points="845.792 204.566 845.792 206.957 845.411 204.572 845.792 204.566"/><polygon class="cls-3" points="845.786 193.264 843.454 193.508 842.758 195.632 842.157 193.585 839.956 193.633 841.563 192.568 840.926 190.498 842.788 191.379 844.424 190.534 843.948 192.253 845.786 193.264"/><path class="cls-3" d="M844.037,204.53c1.392-.345,1.261,2.534.547,3.046C842.6,208.242,842.413,204.691,844.037,204.53Zm.547,2.534a2.03,2.03,0,0,0-.053-1.874,1.275,1.275,0,0,0-.125-.172c-.815-.274-1.053.708-1.023,1.315.018.315.047.886.416.987A.661.661,0,0,0,844.584,207.064Z"/><path class="cls-3" d="M844.685,199.718a1.446,1.446,0,0,1-.309,1.16,1.488,1.488,0,0,1-1,.351,1.918,1.918,0,0,1-1.446-.518,2.244,2.244,0,0,1-.476-1.493,2.046,2.046,0,0,1,1.131-2.01,1.47,1.47,0,0,1,.38-.095,2.116,2.116,0,0,1,1.3.3c.077.048.321.3.286.363a3.258,3.258,0,0,1-.3.4,2.356,2.356,0,0,0-.987-.285c-.916-.018-1.047.791-1.047,1.612s.494,1.077,1.154,1.077.583-.857.583-.857Z"/><path class="cls-3" d="M844.531,205.19a2.03,2.03,0,0,1,.053,1.874.661.661,0,0,1-.785.256c-.369-.1-.4-.672-.416-.987-.03-.607.208-1.589,1.023-1.315A1.275,1.275,0,0,1,844.531,205.19Z"/><polygon class="cls-3" points="842.627 207.249 842.627 207.588 840.926 207.617 840.926 204.554 841.354 204.518 841.402 207.26 842.627 207.249"/><polygon class="cls-3" points="834.906 323.692 834.966 332.18 831.938 331.752 828.554 331.205 828.542 323.407 828.566 323.407 834.906 323.692"/><polygon class="cls-3" points="834.9 323.175 834.906 323.692 828.566 323.407 828.566 323.389 828.566 323.341 834.9 323.175"/><polygon class="cls-3" points="824.271 231.732 827.364 232.844 827.364 232.862 834.9 235.556 834.9 323.068 834.9 323.175 828.566 323.341 828.566 323.389 828.566 323.407 828.542 323.407 828.554 331.205 831.938 331.752 822.409 330.396 807.913 334.096 808.306 225.986 824.271 231.732"/><polygon class="cls-3" points="834.692 214.392 834.9 235.556 827.364 232.844 823.551 108.852 826.716 111.82 828.423 172.124 831.45 173.825 831.439 173.843 828.684 173.772 828.47 197.791 830.523 197.719 830.523 198.427 832.146 198.427 832.075 190.022 833.907 190.022 833.842 213.595 834.323 214.398 834.692 214.392"/><polygon class="cls-3" points="834.9 235.556 827.364 232.862 827.364 232.844 834.9 235.556"/><polygon class="cls-3" points="834.425 187.477 834.692 214.392 834.323 214.398 833.842 213.595 833.907 190.022 833.913 190.022 834.193 187.477 834.425 187.477"/><polygon class="cls-3" points="834.395 184.264 834.425 187.477 834.193 187.477 833.913 187.482 833.925 184.276 834.395 184.264"/><polygon class="cls-3" points="834.306 175.431 834.395 184.264 833.925 184.276 833.913 187.482 831.581 187.548 831.439 173.843 831.45 173.825 834.306 175.431"/><polygon class="cls-3" points="834.193 187.477 833.913 190.022 833.907 190.022 833.913 187.482 834.193 187.477"/><polygon class="cls-3" points="833.913 187.482 833.907 190.022 832.075 190.022 832.146 198.427 830.523 198.427 830.523 197.719 828.47 197.791 828.684 173.772 831.439 173.843 831.581 187.548 833.913 187.482"/><polygon class="cls-3" points="823.551 108.852 827.364 232.844 824.271 231.732 820.821 230.423 818.906 150.401 811.655 145.916 811.488 145.821 811.565 145.69 806.967 145.654 806.759 154.006 806.646 154.214 804.981 153.274 799.829 153.274 799.752 159.746 788.795 151.133 782.163 152.994 782.163 159.912 772.443 153.934 772.521 153.815 771.343 114.188 823.545 108.567 823.551 108.852"/><polygon class="cls-3" points="820.821 230.423 820.821 230.429 808.306 225.986 807.913 334.096 663.364 370.945 663.364 147.688 744.498 141.639 789.67 167.883 789.812 163.939 790.116 155.32 804.927 165.64 804.981 153.274 806.646 154.214 811.643 157.027 811.655 145.916 818.906 150.401 820.821 230.423"/><polygon class="cls-3" points="811.655 145.916 811.643 157.027 806.646 154.214 806.759 154.006 811.488 145.821 811.655 145.916"/><polygon class="cls-3" points="811.565 145.69 811.488 145.821 806.759 154.006 806.967 145.654 811.565 145.69"/><polygon class="cls-3" points="804.981 153.274 804.927 165.64 804.874 163.779 799.877 159.847 804.981 153.274"/><polygon class="cls-3" points="804.981 153.274 799.877 159.847 799.752 159.746 799.829 153.274 804.981 153.274"/><polygon class="cls-3" points="804.874 163.779 804.927 165.64 790.116 155.32 789.812 163.939 788.641 163.898 788.795 151.133 799.752 159.746 799.746 160.019 799.877 159.847 804.874 163.779"/><polygon class="cls-3" points="799.877 159.847 799.746 160.019 799.752 159.746 799.877 159.847"/><polygon class="cls-3" points="789.812 163.939 789.67 167.883 744.498 141.639 747.919 141.383 747.919 138.849 772.443 153.934 782.163 159.912 782.163 160.108 782.264 159.972 788.641 163.898 789.812 163.939"/><polygon class="cls-3" points="788.795 151.133 788.641 163.898 782.264 159.972 788.795 151.133"/><polygon class="cls-3" points="788.795 151.133 782.264 159.972 782.163 159.912 782.163 152.994 788.795 151.133"/><polygon class="cls-3" points="782.264 159.972 782.163 160.108 782.163 159.912 782.264 159.972"/><polygon class="cls-3" points="747.919 138.849 747.919 141.383 744.498 141.639 688.484 109.09 693.278 105.242 747.919 138.849"/><polygon class="cls-3" points="747.919 68.535 747.919 138.849 693.278 105.242 744.171 64.43 747.919 68.535"/><polygon class="cls-3" points="688.484 109.09 744.498 141.639 663.364 147.688 663.364 129.231 688.484 109.09"/><polygon class="cls-3" points="693.278 105.242 688.484 109.09 663.453 94.547 663.364 87.742 663.364 86.844 693.278 105.242"/><polygon class="cls-3" points="665.018 54.449 665.018 54.455 664.863 54.681 621.137 30.4 621.066 30.4 621.101 25.243 665.018 54.449"/><polygon class="cls-3" points="663.364 58.446 621.137 30.4 664.863 54.681 664.905 59.47 663.364 58.446"/><polygon class="cls-3" points="663.364 370.945 663.364 400.829 618.544 411.346 621.066 30.4 621.137 30.4 663.364 58.446 663.364 86.844 663.352 86.838 663.364 87.742 663.364 129.231 641.498 146.766 647.494 148.872 663.364 147.688 663.364 370.945"/><polygon class="cls-3" points="663.364 129.231 663.364 147.688 647.494 148.872 641.498 146.766 663.364 129.231"/><polygon class="cls-3" points="663.364 86.844 663.364 87.742 663.352 86.838 663.364 86.844"/><polygon class="cls-3" points="621.101 25.243 621.066 30.4 618.544 411.346 242.089 350.037 242.089 85.547 621.101 25.243"/><line class="cls-2" x1="834.9" y1="323.175" x2="834.9" y2="323.068"/><polyline class="cls-2" points="807.913 334.096 822.409 330.396 831.938 331.752"/><line class="cls-2" x1="824.271" y1="231.732" x2="808.306" y2="225.986"/><line class="cls-2" x1="834.9" y1="323.068" x2="834.9" y2="235.556"/><polyline class="cls-1" points="788.795 151.133 782.163 152.994 782.163 159.912"/><polyline class="cls-1" points="799.752 159.746 799.829 153.274 804.981 153.274"/><polyline class="cls-1" points="806.759 154.006 806.967 145.654 811.565 145.69"/><polyline class="cls-2" points="834.395 184.264 834.306 175.431 831.45 173.825 828.423 172.124 826.716 111.82 823.551 108.852 823.349 108.662"/><polyline class="cls-2" points="772.521 153.815 771.343 114.188 823.545 108.567 823.551 108.852 827.364 232.844 827.364 232.862 834.9 235.556 834.692 214.392"/><polyline class="cls-2" points="820.821 230.423 824.271 231.732 827.673 233.022"/><polyline class="cls-4" points="804.927 165.64 804.981 153.274 806.646 154.214 811.643 157.027 811.655 145.916 818.906 150.401 820.821 230.423 820.821 230.429 808.306 225.986 807.913 334.096 663.364 370.945"/><line class="cls-2" x1="621.101" y1="25.243" x2="665.018" y2="54.449"/><line class="cls-2" x1="665.018" y1="54.449" x2="665.018" y2="54.455"/><line class="cls-2" x1="665.018" y1="54.455" x2="665.261" y2="54.616"/><polygon class="cls-4" points="621.101 25.243 242.089 85.547 242.089 350.037 618.544 411.346 621.066 30.4 621.101 25.243"/><polyline class="cls-2" points="663.364 147.688 663.364 370.945 663.364 400.829 618.544 411.346"/><line class="cls-2" x1="663.364" y1="87.742" x2="663.364" y2="129.231"/><line class="cls-2" x1="663.364" y1="58.446" x2="663.364" y2="86.844"/><polyline class="cls-2" points="621.137 30.4 663.364 58.446 664.905 59.47 664.863 54.681"/><polyline class="cls-1" points="744.498 141.639 789.67 167.883 789.812 163.939 790.116 155.32 804.927 165.64 804.874 163.779 799.877 159.847 799.752 159.746 788.795 151.133 788.641 163.898 782.264 159.972 782.163 159.912 772.443 153.934 747.919 138.849"/><polyline class="cls-1" points="693.278 105.242 663.364 86.844 663.352 86.838 663.364 87.742 663.453 94.547 688.484 109.09"/><polyline class="cls-1" points="641.498 146.766 647.494 148.872 663.364 147.688 744.498 141.639 747.919 141.383 747.919 138.849 747.919 68.535 744.171 64.43"/><polyline class="cls-2" points="846.97 322.562 846.874 306.882 846.393 229.971 844.471 230.019 844.471 219.55 845.792 219.562 859.491 219.686 859.675 229.894 846.393 229.953 845.899 229.953"/><line class="cls-2" x1="845.792" y1="214.137" x2="845.792" y2="219.282"/><polyline class="cls-1" points="873.422 213.512 859.598 213.821 845.792 214.137 834.692 214.392 834.323 214.398 833.842 213.595 833.907 190.022"/><polyline class="cls-1" points="833.913 187.482 833.925 184.276 834.395 184.264 894.324 182.831 894.246 213.036 873.427 213.512"/><polyline class="cls-1" points="867.396 209.509 889.773 209.2 889.399 186.025 887.846 186.055 835.793 187.03 835.793 187.477 835.793 209.949 845.792 209.812 859.55 209.622 867.39 209.509"/><polygon class="cls-1" points="848.445 188.381 837.66 188.696 837.66 208.242 845.792 208.105 858.36 207.891 859.532 207.867 864.785 207.778 887.87 207.385 887.87 187.233 870.632 187.732 855.434 188.178 848.445 188.381"/><polyline class="cls-1" points="834.193 187.477 833.913 187.482 831.581 187.548 831.439 173.843 828.684 173.772 828.47 197.791 830.523 197.719 830.523 198.427 832.146 198.427 832.075 190.022 833.907 190.022 833.913 190.022"/><polygon class="cls-5" points="848.474 189.303 848.391 196.09 849.236 196.084 850.378 196.078 850.378 193.104 853.245 193.104 853.245 191.872 850.324 191.872 850.324 190.338 853.709 190.284 853.709 189.261 848.474 189.303"/><path class="cls-5" d="M855.458,188.9v.208l-.012,6.74,1.225-.018.619-.012.024-3.075h.523l2.308,2.855h1.517v-1.321l-.643-.006-1.35-1.7s1.63-.488,1.63-1.7-.654-1.731-1.511-1.761c-.8-.023-3.932,0-4.33,0h-.042"/><path class="cls-6" d="M857.29,190.29v1.332H859a.265.265,0,0,0,.238-.148,1.457,1.457,0,0,0,.143-.631,1.043,1.043,0,0,0-.232-.719l-1.862-.006H857.1"/><polyline class="cls-5" points="863.416 188.761 863.416 195.626 869.276 195.626 869.276 194.335 864.939 194.335 864.939 192.77 868.877 192.77 868.877 191.361 864.755 191.361 864.755 189.933 869.204 189.933 869.204 188.714 863.416 188.72 863.202 188.72"/><polyline class="cls-5" points="870.971 188.791 870.971 195.649 876.824 195.649 876.824 194.365 872.494 194.365 872.494 192.794 876.425 192.794 876.425 191.39 872.303 191.39 872.303 189.963 876.753 189.963 876.753 188.744 870.971 188.744 870.662 188.744"/><polygon class="cls-5" points="840.926 190.498 841.563 192.568 839.956 193.633 842.157 193.585 842.758 195.632 843.454 193.508 845.786 193.264 843.948 192.253 844.424 190.534 842.788 191.379 840.926 190.498"/><polygon class="cls-5" points="880.916 189.564 881.553 191.628 879.947 192.693 882.154 192.646 882.748 194.692 883.444 192.568 885.782 192.324 883.938 191.313 884.414 189.594 882.784 190.439 880.916 189.564"/><path class="cls-7" d="M842.586,197.208a2.046,2.046,0,0,0-1.131,2.01,2.244,2.244,0,0,0,.476,1.493,1.918,1.918,0,0,0,1.446.518,1.488,1.488,0,0,0,1-.351,1.446,1.446,0,0,0,.309-1.16l-.737.006s.083.857-.583.857-1.154-.256-1.154-1.077.131-1.63,1.047-1.612a2.356,2.356,0,0,1,.987.285,3.258,3.258,0,0,0,.3-.4c.035-.059-.209-.315-.286-.363a2.116,2.116,0,0,0-1.3-.3A1.47,1.47,0,0,0,842.586,197.208Z"/><polygon class="cls-7" points="846.511 197.083 845.34 201.086 845.988 201.086 846.149 200.36 847.523 200.36 847.743 201.128 848.451 201.128 846.958 197.083 846.511 197.083"/><polygon class="cls-7" points="846.809 198.374 847.303 199.813 846.321 199.813 846.767 198.374 846.809 198.374"/><path class="cls-7" d="M851.829,197.059s.018.024.048.06a1.693,1.693,0,0,1,.422.975v.018a1.442,1.442,0,0,1-.44.868,1.949,1.949,0,0,1,.422,1.018,1.605,1.605,0,0,1-.571.975h-2.468v-3.854h2.724"/><path class="cls-7" d="M850.122,197.755v.833s1.273.1,1.273-.292S851.383,197.755,850.122,197.755Z"/><path class="cls-7" d="M850.11,199.391v.88s1.362.179,1.362-.256S851.389,199.391,850.11,199.391Z"/><path class="cls-7" d="M855.428,200.8v-.559h-1.66v-3.183a3.042,3.042,0,0,0-.654,0v3.837h2.314Z"/><path class="cls-7" d="M856.689,197.012a1.239,1.239,0,0,0-.244.012V200.8h2.689v-.649h-1.886V199h1.85V198.3h-1.886v-.713h1.981V197S857.361,196.994,856.689,197.012Z"/><path class="cls-7" d="M863.167,196.565s-.982.322-.982.756a2.822,2.822,0,0,0,.345,1.053,1.563,1.563,0,0,0-.934,1.3c-.018.911.589,1.03.589,1.03H863.7l.357-.363,1.118.41.208-.642-.844-.351s.363-.417.374-.423-.428-.327-.434-.327a3.192,3.192,0,0,1-.446.333c-.018,0-.256-.7-.345-.815-.071-.083.565-.469.595-1.153C864.315,196.8,863.559,196.542,863.167,196.565Z"/><path class="cls-7" d="M863.292,197.244a.369.369,0,0,0-.363.351c.012.154.178.362.339.356a.46.46,0,0,0,.357-.356C863.625,197.339,863.292,197.244,863.292,197.244Z"/><path class="cls-7" d="M862.881,199s-.535.482-.535.684.375.595.607.494a1.948,1.948,0,0,0,.487-.363Z"/><polygon class="cls-7" points="867.217 196.762 868.241 200.587 869.168 200.587 870.043 198.332 870.554 198.332 871.256 200.557 872.41 200.557 873.219 196.774 872.279 196.774 871.845 198.957 871.001 196.893 869.74 196.893 868.883 199.034 868.211 196.762 867.217 196.762"/><polygon class="cls-7" points="874.635 196.661 874.635 200.533 875.801 200.533 875.801 196.625 874.635 196.661"/><polygon class="cls-7" points="877.246 196.304 877.258 196.893 877.324 200.64 878.287 200.64 878.287 198.719 880.494 198.719 880.494 197.969 878.24 197.969 878.24 197.113 880.542 197.113 880.536 196.286 877.246 196.304"/><polygon class="cls-7" points="883.04 200.503 883.04 196.595 881.88 196.631 881.88 197.113 881.88 200.503 883.04 200.503"/><polygon class="cls-8" points="855.458 202.46 840.914 202.728 840.914 202.96 845.78 202.889 884.069 202.341 884.021 201.931 883.064 201.949 855.458 202.46"/><path class="cls-8" d="M850.069,205.054l-.018,1.9h.47a1.642,1.642,0,0,0,.434-.886c.012-.446-.048-.857-.2-.946A2.14,2.14,0,0,0,850.069,205.054Z"/><polygon class="cls-8" points="840.926 204.554 840.926 207.617 842.627 207.588 842.627 207.249 841.402 207.26 841.354 204.518 840.926 204.554"/><path class="cls-8" d="M844.037,204.53c-1.624.161-1.439,3.712.547,3.046C845.3,207.064,845.429,204.185,844.037,204.53Z"/><path class="cls-8" d="M844.406,205.018c-.815-.274-1.053.708-1.023,1.315.018.315.047.886.416.987a.661.661,0,0,0,.785-.256,2.03,2.03,0,0,0-.053-1.874A1.275,1.275,0,0,0,844.406,205.018Z"/><polygon class="cls-8" points="845.792 206.957 845.869 207.439 846.315 207.439 846.607 206.261 846.851 206.255 847.178 207.409 847.66 207.409 848.141 204.578 847.612 204.602 847.356 205.827 847.035 204.869 846.482 204.875 846.184 205.815 845.923 204.566 845.792 204.566 845.411 204.572 845.792 206.957"/><path class="cls-8" d="M849.6,204.631v2.719h1.154a2.212,2.212,0,0,0,.588-1.315,3.076,3.076,0,0,0-.434-1.4Z"/><polygon class="cls-8" points="852.924 204.578 852.323 204.572 851.805 207.308 852.246 207.308 852.317 206.999 852.953 206.999 853.09 207.332 853.489 207.332 852.924 204.578"/><polygon class="cls-8" points="852.745 205.559 852.543 205.559 852.376 206.57 852.858 206.57 852.745 205.559"/><polygon class="cls-8" points="854.298 204.518 854.274 207.356 854.661 207.356 854.678 204.506 854.298 204.518"/><polygon class="cls-8" points="855.345 204.56 855.345 207.35 856.772 207.35 856.772 206.868 855.826 206.868 855.826 204.572 855.345 204.56"/><polygon class="cls-8" points="858.902 204.524 858.408 204.524 858.027 205.321 857.504 204.489 856.992 204.506 857.688 205.839 857.688 207.374 858.355 207.374 858.355 205.839 858.902 204.524"/><polyline class="cls-8" points="860.074 204.655 860.538 207.237 860.984 207.237 861.418 206.077 861.596 206.083 861.846 207.207 862.328 207.207 862.441 206.225 862.655 204.393 862.28 204.393 862.036 205.797 861.715 204.59 861.269 204.59 861.055 205.304 860.865 205.946 860.71 205.077 860.585 204.364 860.02 204.376 860.068 204.649"/><path class="cls-8" d="M863.9,207.2h1.237V206.7H863.7v-.868h1.41v-.541h-1.44v-.548h1.517V204.3s-2.076-.006-2.1.018V207.2Z"/><path class="cls-8" d="M882.534,203.745v2.879h2.052v-.494h-1.439v-.868h1.41v-.541h-1.44v-.548h1.517v-.446S882.552,203.721,882.534,203.745Z"/><polygon class="cls-8" points="869.799 204.144 869.109 204.161 868.615 205.131 868.615 204.138 867.955 204.138 867.943 207.112 868.586 207.112 868.586 206.136 869.18 207.124 869.87 207.1 869.05 205.702 869.799 204.144"/><path class="cls-8" d="M870.293,207.023h1.838V206.5H870.81v-2.54a2.976,2.976,0,0,0-.517,0v3.064Z"/><polygon class="cls-8" points="872.232 204.013 872.952 205.387 872.958 206.969 873.642 206.969 873.642 205.387 874.207 204.031 873.695 204.031 873.303 204.851 872.761 203.995 872.232 204.013"/><path class="cls-8" d="M875.712,203.858h-.006"/><path class="cls-8" d="M875.712,203.858V206.8l.6-.011.006-1.345h.173l.749,1.249h.494v-.577l-.208-.006-.44-.743a.861.861,0,0,0,.529-.738c0-.529-.214-.761-.488-.773S875.807,203.858,875.712,203.858Z"/><line class="cls-8" x1="875.712" y1="203.733" x2="875.712" y2="203.858"/><path class="cls-8" d="M876.312,204.376v.577h.554a.094.094,0,0,0,.083-.066.872.872,0,0,0,.041-.273.581.581,0,0,0-.071-.316h-.666"/><polygon class="cls-8" points="879.281 203.87 878.638 203.858 878.097 206.743 878.561 206.743 878.579 206.404 879.37 206.404 879.447 206.767 879.869 206.767 879.281 203.87"/><polygon class="cls-8" points="879.138 204.786 878.823 204.786 878.632 205.988 879.364 205.999 879.138 204.786"/><polygon class="cls-8" points="879.887 203.805 879.887 204.185 880.768 204.185 880.768 206.743 881.446 206.743 881.416 204.155 882.207 204.126 882.207 203.715 879.887 203.805"/><path class="cls-8" d="M865.546,204.227v2.885H867.6v-.5h-1.439v-.868h1.409V205.2h-1.439v-.547h1.517v-.44S865.57,204.2,865.546,204.227Z"/><polyline class="cls-4" points="873.422 213.512 873.427 213.512 873.535 213.584 884.158 220.846 884.158 224.629 883.254 225.123 884.075 228.169 884.075 323.746 862.732 331.52 853.477 335.22 831.938 331.752 828.554 331.205 828.542 323.407 828.566 323.407 834.906 323.692 852.591 324.489 860.805 320.748 860.799 320.266 859.782 229.894 859.598 213.821"/><polyline class="cls-4" points="828.566 323.341 834.9 323.175 847.005 322.853 847.059 322.853 852.24 322.717 858.176 320.242 860.799 320.266 860.817 320.266"/><polygon class="cls-9" points="849.264 304.913 849.322 322.676 850.889 322.769 851.048 303.735 849.264 304.913"/><polygon class="cls-10" points="850.878 319.968 861.146 317.911 861.143 317.324 850.91 319.021 850.878 319.968"/><polygon class="cls-11" points="850.695 305.3 860.705 303.902 860.761 303.277 850.641 304.422 850.695 305.3"/><polyline class="cls-9" points="702.451 361.431 704.149 361.979 704.997 361.979 704.997 322.561 702.315 325.588 702.315 361.431"/><path class="cls-9" d="M735.549,353.131l1.1.128h.94V318.773l-1.359,1.261S735.593,353.086,735.549,353.131Z"/><polygon class="cls-9" points="763.024 316.411 762.613 347.153 761.804 346.802 760.893 345.899 760.893 318.717 763.024 316.411"/><path class="cls-9" d="M799.631,336.271l.716.572h.716V311.936l-1.289,1.574S799.452,336.092,799.631,336.271Z"/><polygon class="cls-9" points="815.038 332.585 816.508 332.908 816.834 309.972 815.283 311.183 815.038 332.585"/><polygon class="cls-9" points="859.145 303.271 859.145 319.843 860.695 320.567 860.695 302.194 859.145 303.271"/><line class="cls-12" x1="822.832" y1="330.41" x2="808.134" y2="327.939"/><polyline class="cls-13" points="663.653 365.264 752.611 345.146 759.199 344.569 825.329 327.11 825.082 325.793 759.117 342.428 752.529 343.581 663.485 362.898"/><polygon class="cls-13" points="825.958 309.341 762.434 318.543 747.443 319.008 663.54 329.7 663.54 327.027 747.095 317.381 761.505 317.149 825.885 308.433 825.958 309.341"/><path class="cls-14" d="M665.606,325.115l-.722-.318v-2.005l1.258-1.53.963,1.574v1.97l-.54.458.053,40.35-1.349-.482S666.035,324.687,665.606,325.115Z"/><path class="cls-14" d="M670.041,324.591l-.721-.312v-1.971l1.257-1.5.963,1.546v1.936l-.54.451.053,39.652-1.349-.473S670.47,324.17,670.041,324.591Z"/><path class="cls-14" d="M673.782,324.179l-.722-.309v-1.95l1.257-1.486.963,1.529v1.915l-.54.446.053,39.219-1.349-.468S674.21,323.762,673.782,324.179Z"/><path class="cls-14" d="M677.555,323.89l-.721-.3v-1.911l1.257-1.457.963,1.5V323.6l-.54.437.053,38.433-1.349-.459S677.984,323.482,677.555,323.89Z"/><path class="cls-13" d="M692.035,322.115l-.722-.289V320l1.258-1.39.962,1.43v1.79l-.54.417.054,36.669-1.349-.438S692.463,321.726,692.035,322.115Z"/><path class="cls-14" d="M684.949,323.033l-.722-.3v-1.868l1.258-1.426.963,1.466v1.836l-.54.427.053,37.6-1.349-.449S685.378,322.633,684.949,323.033Z"/><path class="cls-14" d="M688.646,322.549l-.722-.292v-1.843l1.258-1.406.962,1.446v1.811l-.539.421.053,37.083-1.349-.443S689.075,322.155,688.646,322.549Z"/><path class="cls-14" d="M681.1,323.379l-.722-.3v-1.891l1.258-1.443.963,1.484v1.858l-.54.433.053,38.058-1.349-.454S681.527,322.975,681.1,323.379Z"/><path class="cls-13" d="M695.655,321.707l-.722-.287V319.6l1.258-1.385.962,1.425v1.783l-.54.415.053,36.527-1.348-.436S696.083,321.319,695.655,321.707Z"/><path class="cls-13" d="M698.966,321.481l-.721-.282v-1.781l1.257-1.359.963,1.4v1.75l-.54.408.053,35.844-1.349-.427S699.4,321.1,698.966,321.481Z"/><path class="cls-13" d="M702.1,321.016l-.722-.281v-1.777l1.258-1.355L703.6,319v1.745l-.539.406.053,35.743-1.349-.426S702.526,320.637,702.1,321.016Z"/><path class="cls-13" d="M705.386,320.773l-.672-.277V318.75l1.17-1.332.9,1.37V320.5l-.5.4.049,35.136-1.255-.42S705.784,320.4,705.386,320.773Z"/><path class="cls-13" d="M708.327,320.416l-.648-.276V318.4l1.13-1.325.865,1.363v1.706l-.485.4.048,34.95-1.213-.417S708.713,320.044,708.327,320.416Z"/><path class="cls-13" d="M711.106,320.1l-.649-.272v-1.72l1.131-1.312.865,1.349v1.69l-.485.393.047,34.6-1.212-.413S711.491,319.737,711.106,320.1Z"/><path class="cls-13" d="M714.1,319.784l-.648-.271v-1.708l1.13-1.3.865,1.34v1.678l-.485.391.048,34.368-1.213-.41S714.484,319.419,714.1,319.784Z"/><path class="cls-13" d="M716.993,319.513l-.649-.267v-1.684l1.13-1.285.865,1.321v1.655l-.485.385.048,33.892-1.212-.4S717.378,319.153,716.993,319.513Z"/><path class="cls-15" d="M737.765,317.249l-.6-.248V315.44l1.044-1.192.8,1.225v1.535l-.448.357.045,31.422-1.12-.375S738.121,316.915,737.765,317.249Z"/><path class="cls-15" d="M722.372,319.044l-.617-.263v-1.658l1.075-1.265.822,1.3v1.629l-.461.379.045,33.366-1.152-.4S722.738,318.689,722.372,319.044Z"/><path class="cls-15" d="M724.931,318.736l-.6-.261V316.83l1.037-1.254.794,1.29v1.616l-.445.376.044,33.09-1.112-.395S725.285,318.384,724.931,318.736Z"/><path class="cls-15" d="M727.678,318.523l-.6-.257v-1.627l1.037-1.24.794,1.276v1.6l-.445.372.043,32.722-1.112-.391S728.032,318.176,727.678,318.523Z"/><path class="cls-15" d="M730.176,318.065l-.6-.254V316.2l1.037-1.226.793,1.261v1.579l-.445.368.044,32.348-1.112-.386S730.529,317.722,730.176,318.065Z"/><path class="cls-15" d="M732.674,317.79l-.6-.253v-1.6l1.036-1.218.794,1.253v1.568l-.445.366.044,32.125-1.112-.384S733.027,317.449,732.674,317.79Z"/><path class="cls-15" d="M735.171,317.623l-.6-.25V315.8l1.037-1.2.794,1.236v1.548l-.445.361.043,31.711-1.112-.379S735.525,317.286,735.171,317.623Z"/><path class="cls-15" d="M719.637,319.282l-.595-.264v-1.664l1.037-1.27.794,1.306v1.635l-.445.38.044,33.487-1.112-.4S719.991,318.926,719.637,319.282Z"/><path class="cls-16" d="M744.468,316.4l-.571-.241v-1.523l1-1.162.761,1.195v1.5l-.427.348.042,30.64-1.067-.366S744.807,316.077,744.468,316.4Z"/><path class="cls-15" d="M742.2,316.846l-.513-.242v-1.527l.893-1.165.684,1.2v1.5l-.383.349.037,30.72-.958-.366S742.5,316.52,742.2,316.846Z"/><path class="cls-15" d="M739.984,316.984l-.513-.244V315.2l.893-1.175.684,1.208v1.513l-.383.353.038,30.988-.959-.37S740.288,316.655,739.984,316.984Z"/><path class="cls-16" d="M746.8,316.28l-.571-.239v-1.506l.994-1.148.762,1.181v1.479l-.427.345.042,30.3-1.067-.362S747.142,315.958,746.8,316.28Z"/><path class="cls-16" d="M749.64,315.7l-.042,30.554-1.02-.344s.23-30.642.23-30.622Z"/><path class="cls-16" d="M751.036,315.816,751,345.9l-.839-.339s.189-30.169.189-30.149Z"/><path class="cls-16" d="M756.415,315.651l-.035,29.562-.838-.333s.189-29.648.189-29.628Z"/><path class="cls-16" d="M754.751,315.734l-.034,29.724-.839-.335s.189-29.81.189-29.79Z"/><path class="cls-16" d="M752.8,315.883l-.035,29.724-.838-.335s.189-29.81.189-29.79Z"/><path class="cls-16" d="M758.177,315.656l-.035,29.312-.838-.33s.189-29.4.189-29.378Z"/><path class="cls-16" d="M759.841,315.683l-.035,29.139-.838-.329s.189-29.223.189-29.2Z"/><path class="cls-16" d="M764.286,315.644l-.384-.278V314l.737-.809.694.81v1.347l-.289.4.042,27.592-1.067-.329S764.625,315.351,764.286,315.644Z"/><path class="cls-16" d="M766.419,315.427l-.384-.275V313.8l.737-.8.694.8v1.331l-.289.4.042,27.264-1.067-.325S766.758,315.137,766.419,315.427Z"/><path class="cls-16" d="M768.3,315.139l-.384-.273v-1.345l.738-.794.694.8v1.322l-.29.395.042,27.074-1.066-.324S768.64,314.852,768.3,315.139Z"/><path class="cls-16" d="M770.047,314.9l-.384-.271V313.29l.737-.788.694.789V314.6l-.289.392.042,26.863-1.067-.32S770.386,314.61,770.047,314.9Z"/><path class="cls-16" d="M771.794,314.631l-.358-.27V313.03l.686-.785.645.786v1.308l-.269.391.039,26.776-.991-.319S772.109,314.346,771.794,314.631Z"/><path class="cls-16" d="M773.457,314.477l-.335-.267v-1.319l.643-.778.605.779v1.3l-.252.387.036,26.536-.93-.316S773.752,314.2,773.457,314.477Z"/><path class="cls-16" d="M775.128,314.333l-.335-.265v-1.3l.643-.769.605.77v1.281l-.252.383.035,26.226-.93-.313S775.423,314.054,775.128,314.333Z"/><path class="cls-16" d="M776.807,314.145l-.335-.262v-1.289l.643-.761.605.762v1.267l-.252.379.035,25.952-.93-.31S777.1,313.869,776.807,314.145Z"/><path class="cls-16" d="M778.608,313.881l-.335-.259v-1.278l.643-.754.6.755V313.6l-.252.376.035,25.7-.93-.307S778.9,313.608,778.608,313.881Z"/><path class="cls-16" d="M780.331,313.712l-.335-.256v-1.263l.643-.745.605.747v1.24l-.252.371.036,25.411-.931-.3S780.626,313.442,780.331,313.712Z"/><path class="cls-17" d="M781.953,313.44l-.335-.253v-1.253l.643-.738.606.74v1.23l-.253.368.036,25.194-.93-.3S782.249,313.173,781.953,313.44Z"/><path class="cls-17" d="M783.647,313.271l-.335-.252v-1.24l.643-.731.6.733V313l-.252.364.036,24.953-.931-.3S783.942,313.006,783.647,313.271Z"/><path class="cls-17" d="M785.132,313.11l-.268-.249v-1.229l.515-.726.484.727v1.208l-.2.361.029,24.737-.745-.3S785.369,312.848,785.132,313.11Z"/><path class="cls-17" d="M786.474,312.937l-.268-.248v-1.222l.515-.721.484.722v1.2l-.2.359.029,24.588-.745-.294S786.711,312.676,786.474,312.937Z"/><path class="cls-17" d="M787.818,312.687l-.268-.246v-1.213l.515-.716.485.717v1.192l-.2.356.028,24.408-.744-.291S788.055,312.428,787.818,312.687Z"/><path class="cls-17" d="M789.266,312.5l-.268-.244v-1.207l.515-.712.484.713v1.186l-.2.354.029,24.278-.745-.29S789.5,312.245,789.266,312.5Z"/><path class="cls-16" d="M762.187,315.988l-.385-.278v-1.371l.738-.81.694.811v1.347l-.289.4.042,27.592-1.067-.33S762.525,315.7,762.187,315.988Z"/><path class="cls-17" d="M790.67,312.347l-.268-.242v-1.194l.515-.7.485.706v1.172l-.2.351.028,24.02-.744-.286S790.907,312.092,790.67,312.347Z"/><path class="cls-17" d="M792.154,312.182l-.268-.24V310.76l.514-.7.485.7v1.161l-.2.347.028,23.788-.744-.284S792.39,311.929,792.154,312.182Z"/><path class="cls-17" d="M793.694,312.06l-.268-.237v-1.171l.515-.692.484.693v1.15l-.2.344.029,23.568-.745-.282S793.931,311.81,793.694,312.06Z"/><path class="cls-17" d="M795.177,311.876l-.268-.236v-1.16l.515-.685.485.686v1.14l-.2.341.028,23.353-.744-.278S795.414,311.628,795.177,311.876Z"/><path class="cls-17" d="M796.49,311.636l-.269-.234v-1.153l.515-.68.485.681v1.133l-.2.339.028,23.194-.744-.277S796.726,311.389,796.49,311.636Z"/><path class="cls-17" d="M797.924,311.491l-.268-.233v-1.15l.515-.678.484.679v1.13l-.2.338.029,23.137-.745-.276S798.161,311.245,797.924,311.491Z"/><path class="cls-18" d="M800.727,311.158l-.244-.231v-1.142l.468-.673.441.674v1.122l-.184.335.026,22.967-.677-.275S800.942,310.914,800.727,311.158Z"/><path class="cls-18" d="M811.921,309.644l-.145-.165-.032-1.082.407-.577.47.577-.047,1.024-.124.3.028,21.164-.744-.253S812.157,309.419,811.921,309.644Z"/><path class="cls-18" d="M813.175,309.514l-.145-.164L813,308.274l.407-.574.47.574-.047,1.019-.125.3.029,21.055-.745-.252S813.412,309.29,813.175,309.514Z"/><path class="cls-18" d="M814.377,309.4l-.145-.163-.031-1.067.407-.57.469.57-.047,1.01-.124.3.028,20.876-.744-.25S814.613,309.175,814.377,309.4Z"/><path class="cls-18" d="M815.632,309.258l-.145-.161-.031-1.053.407-.561.47.561-.047,1-.125.293.029,20.6-.745-.246S815.869,309.039,815.632,309.258Z"/><path class="cls-18" d="M816.853,309.133l-.145-.159-.032-1.048.408-.558.469.558-.047.992-.124.291.028,20.483-.744-.245S817.089,308.916,816.853,309.133Z"/><path class="cls-18" d="M818.048,308.949l-.145-.159-.031-1.044.407-.557.47.557-.047.988-.125.291.029,20.428-.745-.244S818.285,308.732,818.048,308.949Z"/><path class="cls-18" d="M819.3,308.777l-.145-.157-.032-1.03.407-.549.47.549-.047.975-.124.286.028,20.139-.744-.241S819.54,308.563,819.3,308.777Z"/><path class="cls-18" d="M820.526,308.6l-.145-.156-.031-1.024.407-.546.469.546-.047.97-.124.284.028,20.03-.744-.24S820.762,308.387,820.526,308.6Z"/><path class="cls-18" d="M801.98,311.01l-.253-.226V309.67l.486-.658.457.659v1.094l-.191.328.027,22.42-.7-.268S802.2,310.772,801.98,311.01Z"/><path class="cls-18" d="M803.159,310.885l-.253-.224v-1.1l.486-.651.458.652v1.084l-.191.325.027,22.2-.7-.265S803.383,310.649,803.159,310.885Z"/><path class="cls-18" d="M804.406,310.678l-.253-.224v-1.1l.486-.65.458.651v1.082l-.191.323.027,22.161-.7-.265S804.63,310.442,804.406,310.678Z"/><path class="cls-18" d="M805.636,310.568l-.253-.222v-1.093l.486-.645.457.646v1.074l-.191.321.027,21.989-.7-.263S805.859,310.334,805.636,310.568Z"/><path class="cls-18" d="M806.92,310.3l-.253-.219V309l.486-.639.457.64v1.063l-.191.318.027,21.77-.7-.26S807.143,310.07,806.92,310.3Z"/><path class="cls-18" d="M808.125,310.144l-.253-.219v-1.082l.486-.639.457.64v1.063l-.19.317.027,21.77-.7-.259S808.349,309.913,808.125,310.144Z"/><path class="cls-18" d="M809.344,309.953l-.253-.218v-1.077l.486-.636.457.637v1.058l-.191.316.027,21.668-.7-.259S809.567,309.723,809.344,309.953Z"/><path class="cls-18" d="M810.661,309.776l-.253-.216V308.5l.486-.628.457.629v1.046l-.191.313.027,21.425-.7-.256S810.884,309.548,810.661,309.776Z"/><path class="cls-18" d="M799.288,311.28l-.253-.23v-1.138l.486-.672.457.673v1.118l-.191.334.027,22.9-.7-.273S799.511,311.037,799.288,311.28Z"/><path class="cls-18" d="M821.8,308.446l-.145-.155-.031-1.017.407-.542.47.542-.047.963-.125.283.029,19.9-.745-.238S822.036,308.235,821.8,308.446Z"/><path class="cls-18" d="M823.037,308.264l-.145-.154-.032-1.009.407-.538.47.538-.047.955-.124.281.028,19.732-.744-.236S823.273,308.054,823.037,308.264Z"/><path class="cls-18" d="M824.248,308.111l-.138-.153-.03-1,.389-.535.448.535-.045.949-.119.279.027,19.611-.71-.235S824.474,307.9,824.248,308.111Z"/><path class="cls-19" d="M852.569,303.764l-.145-.123-.032-.81.407-.432.47.432-.047.767-.124.225.028,15.843-.744-.189S852.805,303.6,852.569,303.764Z"/><path class="cls-19" d="M853.86,303.55l-.145-.123-.031-.81.407-.431.469.431-.047.767-.124.225.029,15.838-.745-.189S854.1,303.382,853.86,303.55Z"/><path class="cls-19" d="M855.126,303.408l-.145-.123-.032-.805.407-.429.47.429-.047.762-.124.224.029,15.738-.745-.188S855.362,303.241,855.126,303.408Z"/><path class="cls-19" d="M856.356,303.265l-.145-.122-.031-.8.407-.426.469.426-.046.756-.125.223.029,15.629-.745-.186S856.593,303.1,856.356,303.265Z"/><path class="cls-19" d="M857.63,303.116l-.145-.121-.032-.8.407-.425.47.425-.047.753-.124.221.028,15.559-.744-.186S857.866,302.951,857.63,303.116Z"/><path class="cls-19" d="M858.867,302.954l-.145-.12-.031-.791.407-.421.469.421-.047.749-.124.219.029,15.46-.745-.185S859.1,302.79,858.867,302.954Z"/><path class="cls-19" d="M860.079,302.811l-.139-.119-.029-.784.388-.419.448.419-.045.742-.119.218.028,15.34-.71-.183S860.3,302.648,860.079,302.811Z"/><path class="cls-19" d="M850.263,304.01l-.145-.125-.031-.824.407-.439.47.439-.047.78-.125.229.029,16.107-.745-.192S850.5,303.839,850.263,304.01Z"/><path class="cls-19" d="M851.423,303.886l-.145-.124-.031-.812.407-.434.47.434-.047.769-.125.226.029,15.9-.744-.19S851.66,303.718,851.423,303.886Z"/><polyline class="cls-20" points="663.422 370.945 822.832 330.41 828.554 331.205"/><polyline class="cls-3" points="663.959 375.086 664.028 371.132 822.821 330.692"/><polygon class="cls-20" points="663.362 400.83 828.554 344.418 828.554 331.205 663.393 374.846 663.362 400.83"/><polyline class="cls-21" points="842.049 297.899 842.972 298.188 843.585 333.324 842.534 334.178 842.013 297.949 839.737 297.949 840.069 334.235 842.272 334.457"/><polyline class="cls-22" points="828.554 331.205 828.505 301.476 827.282 301.079"/><polyline class="cls-22" points="825.008 330.459 825.121 301.1 827.282 301.079 827.665 330.837"/><polygon class="cls-2" points="407.045 132.864 407.045 135.159 426.548 133.438 426.74 131.144 407.045 132.864"/><polygon class="cls-2" points="406.808 137.032 406.808 139.46 426.589 137.091 426.589 135.255 406.808 137.032"/><polygon class="cls-2" points="406.867 141.888 406.867 144.548 426.352 141.888 426.352 139.875 406.867 141.888"/><polygon class="cls-2" points="406.749 147.633 406.749 149.23 426.352 146.922 426.352 145.62 406.749 147.633"/><polygon class="cls-2" points="406.749 151.66 406.749 153.259 426.115 151.601 426.115 150.831 406.749 151.66"/><path class="cls-2" d="M476.392,52.576s-36.774,5.81-39.438,6.254-44.116,6.958-46.929,7.55-37.306,6.365-44.115,7.4-43.4,7.422-43.4,7.422l-2.337,63.088s10.507-2.116,15.837-2.709,22.058-1.924,22.058-1.924,42.043-4.885,48.408-5.329,49.741-5.774,49.741-5.774,33.692-4.062,39.021-5.1"/><polygon class="cls-2" points="380.331 84.083 380.438 94.093 391.513 92.602 390.5 124.533 400.567 123.778 401.95 91.111 413.878 89.514 413.665 79.29 380.331 84.083"/><polygon class="cls-2" points="419.39 78.184 418.009 121.982 449.331 117.907 449.638 108.654 429.646 110.537 429.89 101.744 447.62 99.174 447.737 90.959 430.196 93.256 430.27 85.715 449.605 82.939 449.715 73.862 419.39 78.184"/><polygon class="cls-23" points="457.272 72.689 456.387 116.696 475.724 115.506 475.733 104.671 467.868 105.083 468.468 71.936 457.272 72.689"/><polygon class="cls-24" points="303.55 95.818 302.176 135.37 309.459 134.659 310.917 105.044 315.587 133.243 322.637 132.602 330.327 102.114 329.778 131.503 337.56 130.862 338.476 90.12 326.116 91.859 320.478 118.016 319.352 118.016 315.587 93.782 303.55 95.818"/><path class="cls-25" d="M361.181,85.376c-20.5,1.1-25.8,44.4-1.545,43.245,12.378-1.772,18.317-8.789,18.58-22.45C377.717,95.272,376.121,85.648,361.181,85.376Z"/><path class="cls-26" d="M361.581,95.167c-8.8.681-12.328,23.2-1.868,23.626C371.03,120.165,370.484,95.536,361.581,95.167Z"/><polygon class="cls-3" points="508.584 -40.271 502.16 393.858 501.41 394.233 508.584 -40.271"/><polygon class="cls-3" points="507.793 -40.878 501.374 394.197 495.783 393.019 501.826 -41.193 507.793 -40.878"/><polygon class="cls-3" points="492.5 -41.205 492.488 -40.515 486.557 398.682 485.278 398.635 490.858 -40.997 492.5 -41.205"/><polygon class="cls-3" points="490.858 -40.997 485.278 398.635 470.152 395.857 478.164 -35.899 478.212 -41.033 490.858 -40.997"/><polygon class="cls-2" points="485.278 398.635 470.152 395.857 478.164 -35.899 478.212 -41.033 490.858 -40.997 485.278 398.635"/><polyline class="cls-2" points="508.584 -40.271 502.16 393.858 501.41 394.233"/><polyline class="cls-2" points="485.278 398.635 486.557 398.682 492.488 -40.515 492.5 -41.205 490.858 -40.997"/><polygon class="cls-2" points="507.793 -40.878 501.374 394.197 495.783 393.019 501.826 -41.193 507.793 -40.878"/><polygon class="cls-12" points="495.78 393.017 486.89 395.804 492.556 -41.217 501.903 -41.173 495.78 393.017"/><polygon class="cls-1" points="666.498 212.111 665.337 306.725 692.357 305.26 693.503 218.787 666.498 212.111"/><polygon class="cls-1" points="668.82 217.916 668.239 301.501 690.693 300.574 691.762 222.269 668.82 217.916"/><line class="cls-1" x1="682.28" y1="261.724" x2="691.191" y2="261.722"/><polyline class="cls-22" points="668.677 258.664 679.533 259.325 679.928 220.073 681.927 220.443 682.001 259.489 691.093 260.047"/><polyline class="cls-22" points="668.655 261.729 679.492 261.692 678.891 300.958 682.08 300.958 682.039 261.431"/><polyline class="cls-21" points="818.334 93.406 818.467 109.099 774.537 113.754 774.595 98.04 818.334 93.406 820.061 93.693 820.4 108.978 818.483 109.131"/><polygon class="cls-21" points="775.57 98.952 775.57 112.363 816.852 107.95 816.596 95.007 775.57 98.952"/><polygon class="cls-7" points="807.143 104.971 807.086 107.22 808.199 107.093 808.206 106.687 809.054 106.588 809.052 107.001 809.962 106.913 809.977 105.913 809.539 105.974 809.543 104.763 807.143 104.971"/><polygon class="cls-7" points="808.222 105.468 808.225 105.989 809.002 105.907 809.003 105.404 808.222 105.468"/><polygon class="cls-7" points="812.433 104.446 810.623 104.636 810.583 106.838 812.354 106.636 812.373 105.999 811.258 106.127 811.29 105.308 812.423 105.17 812.433 104.446"/><path class="cls-7" d="M797.248,108.2l-.207-4.592-.46-.1s.826-.331.826-1.887-.517-2.164-1.108-2.2-2.849.232-2.849.232"/><polyline class="cls-7" points="793.427 99.523 793.361 108.674 794.689 108.53 794.722 104.841 796.036 104.676 796.122 108.399 797.419 108.268"/><path class="cls-7" d="M794.706,101.047l-.006,1.7,1.189-.133c.072,0,.136-.068.167-.178a2.4,2.4,0,0,0,.121-.73,2.764,2.764,0,0,0-.121-.9l-1.49.144"/><polygon class="cls-7" points="798.978 99.138 799.042 100.369 800.241 100.209 800.28 107.981 801.327 107.884 801.312 100.049 802.23 99.94 802.207 98.787 798.978 99.138"/><polygon class="cls-7" points="802.972 98.836 804.332 107.501 805.673 107.369 807.045 98.407 805.866 98.536 805.023 104.011 804.022 98.75 802.972 98.836"/><polygon class="cls-7" points="809.523 98.861 808.213 101.934 809.539 101.648 809.293 103.114 811.066 100.07 809.523 100.307 809.523 98.861"/><path class="cls-7" d="M782.4,100.923a4.258,4.258,0,0,0-.813,1.105,23.1,23.1,0,0,0-.025,6.084,9.3,9.3,0,0,0,.926,1.854l1.466-.175a5.644,5.644,0,0,0,.814-1.954,24.537,24.537,0,0,0,.09-4.674,6.219,6.219,0,0,0-.92-2.419Z"/><path class="cls-7" d="M782.776,102.05a3.174,3.174,0,0,0-.431.8,22.638,22.638,0,0,0-.014,4.393c.191.731.292,1.184.5,1.344a2,2,0,0,0,.767-.133,2.972,2.972,0,0,0,.433-1.41,24.018,24.018,0,0,0,.048-3.375,6.758,6.758,0,0,0-.409-1.75Z"/><path class="cls-27" d="M789.367,100.06a4.3,4.3,0,0,0-.813,1.114,22.653,22.653,0,0,0-.009,6.018c.358,1.021.533,1.654.932,1.876a5.267,5.267,0,0,0,1.486-.119,3.7,3.7,0,0,0,.787-2.034,24.782,24.782,0,0,0,.09-4.713,5.454,5.454,0,0,0-.894-2.31Z"/><path class="cls-27" d="M789.742,101.2a3.2,3.2,0,0,0-.432.8,21.82,21.82,0,0,0,0,4.312c.19.737.267,1.213.479,1.373a2.251,2.251,0,0,0,.819-.086,3.367,3.367,0,0,0,.4-1.487,24.415,24.415,0,0,0,.048-3.4,4.652,4.652,0,0,0-.452-1.627Z"/><path class="cls-7" d="M777.833,102.047l-.563,1.507.008,4.5.543,1.307.358.994,1.635-.186.317-.767a22.082,22.082,0,0,0,.276-2.632l-.7.114-.175,2.075-.934.1-.371-1.382-.013-4.316.264-1.017.921-.133.049,1.316.819-.117-.02-1.523-.515-.716-1.394.188Z"/><path class="cls-28" d="M785.576,100.567l-.06,9.063,2.835-.316-.034-1.075-1.774.165.009-8.018S785.576,100.462,785.576,100.567Z"/><polygon class="cls-12" points="641.5 76.702 641.5 146.765 642.226 146.717 744.173 139.985 744.173 64.433 641.5 76.702"/><polygon class="cls-2" points="686.937 83.2 686.738 94.716 692.695 94.518 692.695 132.837 698.254 132.44 698.254 93.922 704.211 93.525 704.409 81.215 686.937 83.2"/><polygon class="cls-2" points="707.471 80.879 707.471 131.803 723.615 130.622 723.615 119.597 713.246 120.384 712.984 109.491 722.04 108.703 722.04 98.597 712.853 99.647 712.853 90.722 722.565 89.935 722.565 79.304 707.471 80.879"/><polygon class="cls-2" points="726.995 79.087 726.995 130.498 742.471 129.608 742.471 116.978 732.865 117.689 732.865 78.553 726.995 79.087"/><polygon class="cls-2" points="643.584 87.296 643.584 137.034 647.825 136.648 647.825 99.249 652.066 136.263 655.469 135.995 659.006 98.092 659.494 135.671 663.714 135.346 663.633 85.434 656.46 86.213 654.044 116.788 653.409 116.788 650.64 86.821 643.584 87.296"/><path class="cls-2" d="M677.051,83.4c-3.232-.075-6.364,3.939-7.374,6.262s-2.525,10.4-2.525,19.394,1.19,17.06,2.323,19.9c1.5,3.745,3.333,6.161,6.566,6.161s5.651-2.427,7.272-6.464c1.538-3.831,2.752-10.467,2.627-20.1-.061-4.647-.4-13.737-1.617-17.475S681.394,83.5,677.051,83.4Z"/><path class="cls-1" d="M676.773,94.478c-1.516,0-3.086,1.787-3.519,4.386a77.553,77.553,0,0,0-.542,11.261c.054,3.79.217,7.2.325,7.9s.866,5.793,3.249,5.793,3.519-3.3,3.952-5.468a58.339,58.339,0,0,0,.379-8.283c0-1.246-.433-10.016-.921-11.641S678.018,94.478,676.773,94.478Z"/><polygon class="cls-2" points="739.417 230.404 738.552 300.868 758.676 299.777 759.529 235.375 739.417 230.404"/><polygon class="cls-2" points="741.146 234.727 740.714 296.978 757.436 296.287 758.233 237.969 741.146 234.727"/><line class="cls-2" x1="751.171" y1="267.354" x2="757.807" y2="267.351"/><polyline class="cls-12" points="741.04 265.074 749.125 265.567 749.419 236.333 750.908 236.609 750.963 265.688 757.734 266.104"/><polyline class="cls-12" points="741.023 267.357 749.094 267.33 748.647 296.573 751.022 296.573 750.991 267.135"/><polygon class="cls-5" points="771.367 239.044 770.655 299.075 787.226 298.145 787.929 243.28 771.367 239.044"/><polygon class="cls-5" points="772.79 242.727 772.434 295.76 786.205 295.172 786.861 245.489 772.79 242.727"/><line class="cls-5" x1="781.046" y1="270.523" x2="786.511" y2="270.521"/><polyline class="cls-21" points="772.703 268.581 779.361 269.001 779.603 244.096 780.829 244.331 780.875 269.104 786.451 269.459"/><polyline class="cls-21" points="772.689 270.526 779.336 270.502 778.967 295.416 780.923 295.416 780.898 270.337"/><polygon class="cls-7" points="863.667 260.534 863.379 296.428 870.079 295.872 870.363 263.066 863.667 260.534"/><polygon class="cls-7" points="864.243 262.736 864.099 294.446 869.666 294.094 869.931 264.388 864.243 262.736"/><line class="cls-7" x1="867.58" y1="279.356" x2="869.79" y2="279.355"/><polyline class="cls-16" points="864.208 278.195 866.899 278.446 866.997 263.554 867.493 263.695 867.511 278.508 869.765 278.72"/><polyline class="cls-16" points="864.202 279.358 866.889 279.344 866.74 294.24 867.531 294.24 867.521 279.245"/></g></svg>