<svg xmlns="http://www.w3.org/2000/svg" xmlns:xlink="http://www.w3.org/1999/xlink" width="1200" height="445.495" viewBox="0 0 1200 445.495">
  <defs>
    <clipPath id="clip-path">
      <rect id="長方形_7" data-name="長方形 7" width="1200" height="445.495" fill="none" stroke="#000" stroke-width="1"/>
    </clipPath>
  </defs>
  <g id="マスクグループ_8" data-name="マスクグループ 8" clip-path="url(#clip-path)">
    <g id="oldcar-01" transform="translate(-48.515 -16.289)">
      <g id="レイヤー_3" data-name="レイヤー 3" transform="translate(15.925 30.47)">
        <rect id="長方形_25" data-name="長方形 25" width="803.327" height="451.114" transform="translate(0 0)"/>
      </g>
      <g id="レイヤー_2" data-name="レイヤー 2" transform="translate(0 0)">
        <path id="パス_155" data-name="パス 155" d="M-6.344,426.347l73.8,5.362,3.558,5.939,151.906,15.359s-8.457-1.806-12.32-16.718-86.967-54.911-86.967-54.911a21.808,21.808,0,0,0-3.141-1.719,22.848,22.848,0,0,0-6.9-1.806,147.883,147.883,0,0,0-16.835-.724c-8.778-.035-9.73-.075-11.752.6a20.631,20.631,0,0,0-9.226,6.245,15.663,15.663,0,0,0-4.4,10.7,183.956,183.956,0,0,0,0,18.811c.385,4.381,3.22,21.882,3.22,21.882l-2.193.922" transform="translate(13.282 -226.311)" fill="#fff"/>
        <path id="パス_156" data-name="パス 156" d="M125.17-42.28,82.881-50.133l-93.035,9.061V32.321l80.046-1.208L104.63,29.6l43.8-3.624Z" transform="translate(15.768 52.557)" fill="#fff"/>
        <path id="パス_157" data-name="パス 157" d="M414.262,26.193l29.477-.186,45.079-.052,49.338.595,12.055-.128,69.679,4.288,4.687.268,4.65,1.236L619.89,22.092l-6.836-8.022L587.2-12.977l-10.7-11L569.067-31.7s-11.294-3.566-16.941-3.566-19.616-3.269-19.616-3.269L506.057-42.4l-27.938-3.566H429.376L391.927-42.1l-1.349,2.668-.136,4.466Z" transform="translate(-245.688 49.836)" fill="#fff"/>
        <path id="パス_158" data-name="パス 158" d="M-2.562,529.362l-.069,13.706L57.53,549.9s3.008,5.468,7.657,7.109,24.877,2.417,24.877,2.417h0l92.19,5.939s.431,1.316,3.126-.154a9.8,9.8,0,0,0,3.431-2.614l9.968-3.1s9.559,2.532,12.092,2.287,13.072-3.1,13.072-3.1a5.682,5.682,0,0,0,3.268-2.859,6.822,6.822,0,0,0,.654-3.512" transform="translate(10.858 -325.685)" fill="#fff" stroke="#000" stroke-miterlimit="10" stroke-width="1"/>
        <path id="パス_159" data-name="パス 159" d="M891.086,492.789c.421,2.2,3.564,8.206,5.224,10.82s6.053,9.408,10.447,12.231,7.909,4.758,9.031,4.966,13.06,1.667,17.734,1.667,15.033-.883,18.791-2.159,10.816-5.5,13.566-8.439,8.617-12.367,9.625-16.293,4.033-13.152,4.033-14.919-.367-4.809-.367-4.809-.463-48.211-46.46-48.558S887.685,475.043,891.086,492.789Z" transform="translate(-571.518 -259.065)" fill="#fff" stroke="#000" stroke-miterlimit="10" stroke-width="1.036"/>
        <path id="パス_160" data-name="パス 160" d="M944.541,537.345C958,531.6,968.1,514.115,964.528,498.359a28.452,28.452,0,0,0-18.194-20.79,34.122,34.122,0,0,0-3.964-1.15c-7.331-1.667-17.154,1.875-22.908,6.776a29.845,29.845,0,0,0-9.6,17.245c-.056.3-1.73.539-1.779.838a8.043,8.043,0,0,0-.2,2.542c.221.865,1.407,1.146,1.375,2.044-.538,15.164,8.056,31.367,22.781,33.3a22.638,22.638,0,0,0,5.735.026A25.049,25.049,0,0,0,944.541,537.345Z" transform="translate(-583.378 -290.856)" fill="#fff" stroke="#000" stroke-miterlimit="10" stroke-width="1.421"/>
        <path id="パス_161" data-name="パス 161" d="M294.058,390.379c-43.731,5.411-43.312,102.75-8.922,117.618a5.453,5.453,0,0,0,1.247.362c15.579,2.658,29.086,3.426,42.578,1.727a13.758,13.758,0,0,0,8.14-4.04C371.174,471.026,359.736,373.792,294.058,390.379Z" transform="translate(-160.693 -233.738)" fill="#fff" stroke="#000" stroke-miterlimit="10" stroke-width="1"/>
        <path id="パス_162" data-name="パス 162" d="M296.191,424.308a17.927,17.927,0,0,1,9.213,2.671,33.4,33.4,0,0,1,11.354,12.057c6.675,11.373,9.023,25.271,8.812,38.311-.2,12.406-2.719,26.059-10.434,36.132a25.4,25.4,0,0,1-24.647,10.078c-5.374-.845-10.609-7.747-13.256-11.944a61.3,61.3,0,0,1-7.707-20.1c-3.144-14.907-2.725-31.472,2.795-45.789a41.117,41.117,0,0,1,8.956-14.451C285.657,426.9,290.819,424.3,296.191,424.308Z" transform="translate(-165.488 -257.115)" fill="none" stroke="#000" stroke-miterlimit="10" stroke-width="1"/>
        <path id="パス_163" data-name="パス 163" d="M310.495,453.012a13.3,13.3,0,0,1,4.754,1.035,23.012,23.012,0,0,1,8.44,6.251c5.325,6.116,8.088,14.228,9.436,22.11a68.106,68.106,0,0,1-.612,26.37c-1.7,7.491-4.906,15.215-10.809,20.376-8.631,7.547-18.793,3.467-24.952-4.836-4.664-6.288-7.115-14.1-8.327-21.76a68.829,68.829,0,0,1,.558-25.126c1.528-7.081,4.411-14.4,9.827-19.419C302.166,454.9,306.222,452.892,310.495,453.012Z" transform="translate(-178.521 -275.847)" fill="none" stroke="#000" stroke-miterlimit="10" stroke-width="1"/>
        <path id="パス_164" data-name="パス 164" d="M319.387,464.665c7.977.253,13.877,8.471,16.68,15.054A56.974,56.974,0,0,1,340,505.592c-.541,8.172-2.57,16.847-7.561,23.509a20.288,20.288,0,0,1-8.635,7.005c-3.89,1.459-7.7-.165-10.984-2.364a24,24,0,0,1-6.931-7.536c-4.226-6.911-6.073-15.229-6.565-23.24-.5-8.173.382-16.739,3.578-24.34,2.7-6.427,8.567-14.142,16.378-13.961Z" transform="translate(-186.136 -283.455)" fill="none" stroke="#000" stroke-miterlimit="10" stroke-width="1"/>
        <path id="パス_165" data-name="パス 165" d="M348.467,524.529c3.554.112,6.182,3.731,7.433,6.629a24.831,24.831,0,0,1,1.753,11.394,19.3,19.3,0,0,1-3.369,10.353,9.019,9.019,0,0,1-3.847,3.085c-1.734.642-3.431-.073-4.893-1.042a10.616,10.616,0,0,1-3.088-3.319,22.12,22.12,0,0,1-2.924-10.235,23.821,23.821,0,0,1,1.594-10.719c1.2-2.83,3.817-6.228,7.3-6.147Z" transform="translate(-212.423 -322.529)" fill="#fff" stroke="#000" stroke-miterlimit="10" stroke-width="1"/>
        <path id="パス_166" data-name="パス 166" d="M339.668,545.029c1.908.058,3.319,1.927,3.989,3.424a12.387,12.387,0,0,1,.941,5.884,9.713,9.713,0,0,1-1.808,5.347,4.811,4.811,0,0,1-2.065,1.593,3,3,0,0,1-2.626-.538,5.568,5.568,0,0,1-1.657-1.714,11.1,11.1,0,0,1-1.57-5.285,11.876,11.876,0,0,1,.855-5.536c.646-1.462,2.049-3.216,3.916-3.175Z" transform="translate(-209.392 -335.91)" fill="#fff" stroke="#000" stroke-miterlimit="10" stroke-width="1"/>
        <path id="パス_167" data-name="パス 167" d="M338.946,548.176c1.674.05,2.913,1.691,3.5,3.005a10.869,10.869,0,0,1,.826,5.165,8.521,8.521,0,0,1-1.587,4.694,4.223,4.223,0,0,1-1.813,1.4,2.63,2.63,0,0,1-2.306-.472,4.895,4.895,0,0,1-1.455-1.5,9.749,9.749,0,0,1-1.378-4.64,10.429,10.429,0,0,1,.751-4.86c.567-1.285,1.8-2.823,3.439-2.787Z" transform="translate(-209.306 -337.964)" fill="#fff" stroke="#000" stroke-miterlimit="10" stroke-width="1"/>
        <path id="パス_168" data-name="パス 168" d="M333.878,478.079c-.543-.272-4.477.678-4.477.678l-1.153,1.832.2,1.085,2.238,1.966,1.357-1.7,3.664-1.7-1.764-2.713-.258-.2-2.049-1.627-.543-.95-2.307.746-1.153-.2-3.8.543-.811-1.223-5.442,3.264.3,2.572-6.036,2.374-.495.89,1.088,3.562-2.177,4.848-.495-1.088-2.474,1.187-.1.89,1.98,2.473-1.285,6.926-.4.792-1.98.4v1.088l2.375.989.495,8.311-2.177,1.781.1.89,2.771.989,1.88,6.431-1.188,2.869.4.693,3.068.99,1.682.89,1.088.693-.495,4.353,4.156,1.781,1.781.695,1.98,1.98,5.145,1.187,1.218-2.215s-3.8-2.437-3.633-3.179a4.715,4.715,0,0,1,.454-1.237l1.731-.577,1.237,2.267,3.751,1.2-1.763,1.259a15.359,15.359,0,0,1-1.656.51" transform="translate(-190.257 -289.952)" fill="none" stroke="#000" stroke-miterlimit="10" stroke-width="0.75"/>
        <path id="パス_169" data-name="パス 169" d="M392.273,501.19s-3.189.271-3.664.746a2.987,2.987,0,0,0-.95,2.578c.271,1.018,1.494,3.731,2.307,3.731s2.925.48,4.206-1.7C395.142,504.9,392.273,501.19,392.273,501.19Z" transform="translate(-243.835 -307.297)" fill="none" stroke="#000" stroke-miterlimit="10" stroke-width="0.75"/>
        <path id="パス_170" data-name="パス 170" d="M403.987,530.1c-1.181-.286-2.989-.561-3.687.736a3.36,3.36,0,0,0-.332,1.368,8.81,8.81,0,0,0,1.025,4.747c.388.723.629.764,1.4.9a2.457,2.457,0,0,0,2.142-.335C405.57,536.681,404.63,530.35,403.987,530.1Z" transform="translate(-251.894 -326.013)" fill="none" stroke="#000" stroke-miterlimit="10" stroke-width="0.75"/>
        <path id="パス_171" data-name="パス 171" d="M385.181,626.524,383,629v1.736s2.33,2.032,3.57,1.983a8.187,8.187,0,0,0,1.884-.248l1.587-2.528V629.1l-2.132-1.737-1.834-.248-.793-.942Z" transform="translate(-240.832 -388.876)" fill="none" stroke="#000" stroke-miterlimit="10" stroke-width="0.75"/>
        <path id="パス_172" data-name="パス 172" d="M397.377,598.817l-1.339,3.768-.049,1.389s1.983,2.429,3.569,2.084,1.438-.793,1.438-.793l1.289-5.056-.5-.992-3.123-1.289Z" transform="translate(-249.309 -370.439)" fill="none" stroke="#000" stroke-miterlimit="10" stroke-width="0.75"/>
        <path id="パス_173" data-name="パス 173" d="M403.107,566.175l-.142,4.92.662,1.467a11.914,11.914,0,0,0,2.413.426,3.132,3.132,0,0,0,1.467-.331l.379-7.1-.994-.663-1.987-.094S403.3,564.9,403.107,566.175Z" transform="translate(-253.863 -348.818)" fill="none" stroke="#000" stroke-miterlimit="10" stroke-width="0.75"/>
        <path id="パス_174" data-name="パス 174" d="M345.723,642.373l.054.89,2.4,2.185.27.081-.027-2.454a12.99,12.99,0,0,1-2.508-1C345.669,641.78,345.723,642.373,345.723,642.373Z" transform="translate(-216.499 -399.201)" fill="none" stroke="#000" stroke-miterlimit="10" stroke-width="0.75"/>
        <path id="パス_175" data-name="パス 175" d="M358.424,478.288h-2.233l-.927,1.306a5.34,5.34,0,0,0-2.359,1.306,3.458,3.458,0,0,0-.464,1.938l2.233-.042.548-2.064.505-1.053Z" transform="translate(-220.884 -292.349)" fill="none" stroke="#000" stroke-miterlimit="10" stroke-width="0.75"/>
        <path id="パス_176" data-name="パス 176" d="M334.26,495.9l2.359-1.9v-.8l-1.769,1.643Z" transform="translate(-209.021 -302.086)" fill="none" stroke="#000" stroke-miterlimit="10" stroke-width="0.75"/>
        <path id="パス_177" data-name="パス 177" d="M374.37,166.617s-3.619-.208-18.374-2.053-137.979-4.228-156.616-4.228c-7.78,0-24.536.928-42.061,1.977-24.446,1.463-50.388,3.16-55.557,2.9-8.874-.444-104.529,6.838-104.529,6.838l.043,43.259.074,73.181,75.822,7.432,4.013-1.814s-8.872-42.278,1.181-51.147,13.01-6.8,34-6.209,27.5,17.147,36.073,26.9,15.671,23.65,17.445,26.312,2.07,5.617,7.687,6.208,76.581-2.957,80.129-2.957,17.149,4.139,26.019,4.729,50.265-.3,65.64-.59,94.913-3.252,111.766-4.73,32.821-7.982,32.821-7.982a8.019,8.019,0,0,0,4.435-2.661c1.478-2.07,5.027-14.487,7.688-24.243s6.891-42.439,6.891-42.439-5.187-27.659-19.018-34c-12.391-5.679-105.494-12.442-112.16-13.194A7.54,7.54,0,0,1,374.37,166.617Z" transform="translate(10.948 -84.818)" fill="#fff" stroke="#000" stroke-miterlimit="10" stroke-width="1"/>
        <path id="パス_178" data-name="パス 178" d="M403.872,18.916S379.586-45.707,380.188-46.71,383-48.516,384-48.717s67.239-7.024,97.947-2.007S539.754-43.1,539.754-43.1s17.464,2.609,20.675,6.221,58.408,61.813,58.408,61.813l3.412.4L564.444-37.679s-1-3.211-7.026-4.214c0,0-63.014-11.361-76.473-12.009s-64.7-3.891-73.295-3.081-29.349.811-31.458,4.54-2.757,12.323,1.3,21.727,18.81,50.1,18.81,50.1Z" transform="translate(-235.299 57.113)" fill="#fff" stroke="#000" stroke-miterlimit="10" stroke-width="1"/>
        <path id="パス_179" data-name="パス 179" d="M-4.088,172.444l106.83-2.3s39.541-4.331,45.548-4.331,23.2-.621,23.2-.621l122.423-1.036,4.557.208,76.213,3.3-8.062-1.638-71.466-4.351-2.9-.208s-95.908-.829-106.473-.414-28.172.621-34.179.621-39.358,3.315-44.951,3.315S-4.79,169.956-4.79,169.956Z" transform="translate(12.267 -85.207)" fill="#fff" stroke="#000" stroke-miterlimit="10" stroke-width="1"/>
        <path id="パス_180" data-name="パス 180" d="M747.107,342.41s-6.882,28.9-5.9,29.884,3.343,1.376,7.668,1.573,55.056-1.966,55.056-1.966l.393-1.826,2.868-.133.467-3.068-1.134-.333h-.467l.2-4.269s1.667.2,1.868-.267.667-2.535.333-2.735a8.656,8.656,0,0,0-1.734-.4l.133-4.535a1.546,1.546,0,0,0,1.334.067c.6-.334.267-2.734.267-2.734a6.788,6.788,0,0,0-1.467-.134c-.4.067-.267-4.268-.267-4.268l1.468-.2L808.061,344l-1.934-.467a3.027,3.027,0,0,0-3.135-2.6c-2.868-.066-53.762-.4-54.963.133S747.107,342.41,747.107,342.41Z" transform="translate(-474.562 -202.587)" fill="none" stroke="#000" stroke-miterlimit="10" stroke-width="1"/>
        <path id="パス_181" data-name="パス 181" d="M757.934,353.609l3.6.343,27.07-.856,1.2-.514,27.9-.119,1.467-.2-.133-3.068-1.934-.467-27.819.77-1.885.171-25.7.856-3.084-.342" transform="translate(-485.541 -207.783)" fill="none" stroke="#000" stroke-miterlimit="10" stroke-width="1"/>
        <path id="パス_182" data-name="パス 182" d="M831.7,341.851l.625,3.225,1.595.1.8.936-.417,2.6-1.977.208v3.641l1.873.417-.1,2.5-1.665,1.146-.208,3.849,1.457.208-.208,3.329-2.289.417-1.248,4.054,3.121.1c.313,1.042.833.938.313,1.976l-.521,1.042-3.641.313V374" transform="translate(-532.056 -203.295)" fill="none" stroke="#000" stroke-miterlimit="10" stroke-width="1"/>
        <path id="パス_183" data-name="パス 183" d="M757.306,373.33l3.329.208,24.763-.832" transform="translate(-485.131 -223.434)" fill="none" stroke="#000" stroke-miterlimit="10" stroke-width="1"/>
        <path id="パス_184" data-name="パス 184" d="M784.329,384.389l-25.491.416-3.33-.1" transform="translate(-483.957 -231.06)" fill="none" stroke="#000" stroke-miterlimit="10" stroke-width="1"/>
        <path id="パス_185" data-name="パス 185" d="M754.61,395.993h3.017l25.908-.52" transform="translate(-483.371 -238.294)" fill="none" stroke="#000" stroke-miterlimit="10" stroke-width="1"/>
        <path id="パス_186" data-name="パス 186" d="M782.494,406.66l-22.994.208-4.89-.312" transform="translate(-483.371 -245.528)" fill="none" stroke="#000" stroke-miterlimit="10" stroke-width="1"/>
        <path id="パス_187" data-name="パス 187" d="M755.508,418.746h17.168c1.353,0,9.156-.208,9.156-.208" transform="translate(-483.957 -253.349)" fill="none" stroke="#000" stroke-miterlimit="10" stroke-width="1"/>
        <path id="パス_188" data-name="パス 188" d="M777.584,428.425l-23.515.728-3.954-.416" transform="translate(-480.438 -259.802)" fill="none" stroke="#000" stroke-miterlimit="10" stroke-width="1"/>
        <path id="パス_189" data-name="パス 189" d="M843.58,372.512l3.038.056,17.526-.5,9.728-.3" transform="translate(-541.439 -222.824)" fill="none" stroke="#000" stroke-miterlimit="10" stroke-width="1"/>
        <path id="パス_190" data-name="パス 190" d="M873.543,379.838l-9.928.916-18.528.668-1.807-1.147" transform="translate(-541.244 -228.089)" fill="none" stroke="#000" stroke-miterlimit="10" stroke-width="1"/>
        <line id="線_31" data-name="線 31" y1="1.103" x2="30.545" transform="translate(301.62 156.284)" fill="none" stroke="#000" stroke-miterlimit="10" stroke-width="1"/>
        <path id="パス_191" data-name="パス 191" d="M871.77,402.691l-29.024,1.324-1.263-.294" transform="translate(-540.071 -243.006)" fill="none" stroke="#000" stroke-miterlimit="10" stroke-width="1"/>
        <path id="パス_192" data-name="パス 192" d="M840.285,416.321l18.454-.278,1.169-.584,10.88-.477" transform="translate(-539.289 -251.028)" fill="none" stroke="#000" stroke-miterlimit="10" stroke-width="1"/>
        <path id="パス_193" data-name="パス 193" d="M868.662,425.16l-10.565.614-1.335.083-16.191.835-.886-.711" transform="translate(-538.897 -257.671)" fill="none" stroke="#000" stroke-miterlimit="10" stroke-width="1"/>
        <path id="パス_194" data-name="パス 194" d="M834.85,410.322h16.83l-.153,2.142-.1.676" transform="translate(-535.742 -247.986)" fill="none" stroke="#000" stroke-miterlimit="10" stroke-width="1"/>
        <line id="線_32" data-name="線 32" x1="0.497" y2="1.392" transform="translate(316.002 168.438)" fill="none" stroke="#000" stroke-miterlimit="10" stroke-width="1"/>
        <path id="パス_195" data-name="パス 195" d="M1350.744,332.987c-1.958,1.305-1.828,4.438-1.828,4.438l1.044,18.8v4.83h11.1l6.136-.783h1.044l17.495-1.305,3.656-.261.783-1.436,3.394-.783.391-2.611-1.828-.131.392-3.655,2.089-.131.653-2.611-2.089-.131.261-4.047h2.089v-3H1393.7l.13-3.785h1.436V333.64l-1.958-.391s-.521-3.133-1.7-3.265-14.1-.521-14.1-.521l-20.367,1.175Z" transform="translate(-871.256 -195.209)" fill="none" stroke="#000" stroke-miterlimit="10" stroke-width="1"/>
        <path id="パス_196" data-name="パス 196" d="M1363.641,341.665l4.359-.4,4.225-.6,2.817.2,8.315.067,12.2-.8,3.085.67-.067,2.414-3.018.6V347.1l2.75.067.2,2.615-.536.6h-1.811l-.469,4.09,2.28-.134.067,1.341-.2,1.743-2.481-.2-.6,3.822,1.207.537-.335,2.414-2.548.335-.469,1.81-14.761,1.089.611-1.827,3.286-.134.671-1.944-.671-1.073-2.414.134.537-3.353,14.954-1.14" transform="translate(-880.868 -202.167)" fill="none" stroke="#000" stroke-miterlimit="10" stroke-width="1"/>
        <path id="パス_197" data-name="パス 197" d="M1364.741,351.694l7.313-.2h4.708l7.514-.3,12-.451" transform="translate(-881.586 -209.098)" fill="none" stroke="#000" stroke-miterlimit="10" stroke-width="1"/>
        <path id="パス_198" data-name="パス 198" d="M1365.318,362.276l2.805-.3,4.909-.1,3.406-.6,20.218-1.072" transform="translate(-881.963 -215.273)" fill="none" stroke="#000" stroke-miterlimit="10" stroke-width="1"/>
        <path id="パス_199" data-name="パス 199" d="M1399.518,369.663l-13.007.792-4.608.2-5.21.1-7.914.2" transform="translate(-884.222 -221.448)" fill="none" stroke="#000" stroke-miterlimit="10" stroke-width="1"/>
        <path id="パス_200" data-name="パス 200" d="M1369.933,382.449l9.517.1,8.215-.4,12.137-.709" transform="translate(-884.975 -229.135)" fill="none" stroke="#000" stroke-miterlimit="10" stroke-width="1"/>
        <line id="線_33" data-name="線 33" x1="14.845" y2="0.156" transform="translate(484.157 156.865)" fill="none" stroke="#000" stroke-miterlimit="10" stroke-width="1"/>
        <path id="パス_201" data-name="パス 201" d="M1368.49,404.232l6.913.2,7.1-.209" transform="translate(-884.033 -244.006)" fill="none" stroke="#000" stroke-miterlimit="10" stroke-width="1"/>
        <path id="パス_202" data-name="パス 202" d="M1381.815,412.9l-8.928.1-4.107-.1" transform="translate(-884.222 -249.67)" fill="none" stroke="#000" stroke-miterlimit="10" stroke-width="1"/>
        <line id="線_34" data-name="線 34" y1="0.587" x2="4.271" transform="translate(517.778 138.039)" fill="none" stroke="#000" stroke-miterlimit="10" stroke-width="1"/>
        <line id="線_35" data-name="線 35" x2="4.86" y2="0.132" transform="translate(517.711 141.04)" fill="none" stroke="#000" stroke-miterlimit="10" stroke-width="1"/>
        <line id="線_36" data-name="線 36" y1="0.039" x2="4.998" transform="translate(517.443 144.958)" fill="none" stroke="#000" stroke-miterlimit="10" stroke-width="1"/>
        <line id="線_37" data-name="線 37" x2="4.536" y2="0.349" transform="translate(517.644 147.611)" fill="none" stroke="#000" stroke-miterlimit="10" stroke-width="1"/>
        <line id="線_38" data-name="線 38" y1="0.164" x2="4.811" transform="translate(517.107 152.007)" fill="none" stroke="#000" stroke-miterlimit="10" stroke-width="1"/>
        <line id="線_39" data-name="線 39" y1="0.376" x2="4.293" transform="translate(516.973 154.879)" fill="none" stroke="#000" stroke-miterlimit="10" stroke-width="1"/>
        <line id="線_40" data-name="線 40" y1="0.879" x2="5.779" transform="translate(515.096 158.534)" fill="none" stroke="#000" stroke-miterlimit="10" stroke-width="1"/>
        <line id="線_41" data-name="線 41" x2="4.155" y2="0.232" transform="translate(514.76 161.826)" fill="none" stroke="#000" stroke-miterlimit="10" stroke-width="1"/>
        <line id="線_42" data-name="線 42" y1="1.207" x2="13.01" transform="translate(500.879 158.876)" fill="none" stroke="#000" stroke-miterlimit="10" stroke-width="1"/>
        <line id="線_43" data-name="線 43" y1="0.939" x2="11.333" transform="translate(500.879 162.162)" fill="none" stroke="#000" stroke-miterlimit="10" stroke-width="1"/>
        <path id="パス_203" data-name="パス 203" d="M1021.09,349.278c.628-1.257,3.2-.863,3.2-.863h42.756l34.748-.493s3.08.123,3.943,1.972.863,20.205.863,20.205a7.463,7.463,0,0,1-.986,3.7,4.769,4.769,0,0,1-3.2,1.478l-45.714,1.232-17.5.616-12.815.37A5.3,5.3,0,0,1,1022.2,377a3.188,3.188,0,0,1-1.6-3.7l-.74-19.59A17.378,17.378,0,0,1,1021.09,349.278Z" transform="translate(-656.491 -207.258)" fill="#fff" stroke="#000" stroke-miterlimit="10" stroke-width="1"/>
        <path id="パス_204" data-name="パス 204" d="M1028.147,355.079c.955-1.365,3.275-1.365,3.275-1.365l41.891-.546h35.069l1.364.819-.273,1.228s.819,18.965.819,19.51a15.819,15.819,0,0,1-.41,2.183l-1.365.546-77.778,2.32s-1.91.273-2.047-.955S1028.147,355.079,1028.147,355.079Z" transform="translate(-661.901 -210.682)" fill="#fff" stroke="#000" stroke-miterlimit="10" stroke-width="1"/>
        <path id="パス_205" data-name="パス 205" d="M1112.223,378.447l-79.416,1.91s-1.5-21.421-.955-23.194l80.233-1.637Z" transform="translate(-664.241 -212.221)" fill="#fff" stroke="#000" stroke-miterlimit="10" stroke-width="1"/>
        <path id="パス_206" data-name="パス 206" d="M104.224,174.61l.208,4.462-1.072,3.739-2.015,1.87a33.251,33.251,0,0,0-5.612,12.229c-2.015,7.913-5.18,17.552-5.18,17.552L89.548,217.2l-2.158,2.014-1.247.2-1.424,2.818,1.149,1.7.949.7s0,3.794-1.5,4.793S74.232,235.61,69.988,241.8a44.576,44.576,0,0,0-6.641,14.829,114.1,114.1,0,0,0-1.964,16.437c-.117,4.788,3.387,23.356,3.387,24.171s-10.862,0-13.781.117S-2.2,294.6-2.2,294.6" transform="translate(10.577 -94.135)" fill="#fff" stroke="#000" stroke-miterlimit="10" stroke-width="1"/>
        <path id="パス_207" data-name="パス 207" d="M459.5,495.558l12.853-.33,15.49,1.977,37.9,1.318L542.55,500.5l6.632-1.075" transform="translate(-290.761 -303.405)" fill="none" stroke="#000" stroke-miterlimit="10" stroke-width="1"/>
        <path id="パス_208" data-name="パス 208" d="M1265.058,379l.594-6.807,1.4-17.017.5-2.489-1.244-2.24s-1.493-4.231,1-4.48,22.9-.5,22.9-.5l3.984,2.4-.521,30Z" transform="translate(-816.526 -205.658)" fill="#fff" stroke="#000" stroke-miterlimit="10" stroke-width="1"/>
        <path id="パス_209" data-name="パス 209" d="M273.746,23.184s-5.023-36.314-6.568-45.2S260.8-47.126,260.8-47.126a29.96,29.96,0,0,0-2.223-2.885,17.307,17.307,0,0,0-5.119-4.262c-3.864-1.835-7.4,2.509-7.4,2.509s5.739-2.869,8.2,8.2,11.479,61.075,11.479,61.075l1.693,5.939Z" transform="translate(-151.456 55.554)" fill="#fff" stroke="#000" stroke-miterlimit="10" stroke-width="1"/>
        <path id="パス_210" data-name="パス 210" d="M281.241-39.781a14.223,14.223,0,0,1,1.173,2.668l.879,3.283,6.939,35.386,4.25,31.5" transform="translate(-174.417 45.8)" fill="none" stroke="#000" stroke-miterlimit="10" stroke-width="1"/>
        <path id="パス_211" data-name="パス 211" d="M727.22,536.474l90.646-2.942,15.018-.9,1.97.492s-.985,6.075-2.873,6.732-31.114,4.487-31.114,4.487,2.668,3.924,6.122,3.924,14.127-.471,16.324-.785,8.162-1.883,8.162-1.883l17.11-2.2,6.75-2.982S869.149,531,869.777,529.9s-36.035,2.668-36.035,2.668a17.909,17.909,0,0,1-1.314,5.5,2.237,2.237,0,0,1-.358.511c-1.151,1.248-3.792,1.676-5.04,1.812-.417.045-.678.058-.678.058l-1.478.657s-31.854,4.187-35.139,4.925-31.854,1.642-31.854,1.642l-7.222,3.2-23.727.575-1.478-2.791s24.712-4.433,26.6-4.679,2.545-1.149,3.2-3.448a11.081,11.081,0,0,0,.164-4.679s-5.911-.164-7.553-.657-4.023-5.09-4.023-5.09l-.411-1.149-3.038-3.53-8.986-.317a33.284,33.284,0,0,0-8.51,3.456c-3.192,2.127-2.659,7.976-2.659,7.976s2.393,5.317,4.254,6.646,2.924,1.6.532,4.52a7.306,7.306,0,0,1-1.937,1.584c-.37.219-.76.422-1.159.608a25.827,25.827,0,0,1-5.944,1.8l-7.711-1.063s-68.6-.8-76.447-1.358-12.851-16.147-12.851-16.147l40.52-1.809,19.693,3.334,41.1,1.543" transform="translate(-394.849 -322.91)" fill="#fff" stroke="#000" stroke-miterlimit="10" stroke-width="1"/>
        <path id="パス_212" data-name="パス 212" d="M502.742,173.2s58.159,6.369,69.764,8.432,28.369,3.094,30.947,6.7,12.379,33.524,12.379,33.524.258,2.836,3.869,2.836H734.21c4.642,0,90.266-1.031,92.329-1.547l2.063-.516s-7.479-26.819-8.51-29.14-5.674-5.158-11.348-6.7" transform="translate(-318.984 -93.215)" fill="#fff" stroke="#000" stroke-miterlimit="10" stroke-width="1"/>
        <path id="パス_213" data-name="パス 213" d="M197.409,237.429l3.173-.254,3.99-.319,4.585,3.008.143,1.862,2.292,1.289s3.3.43,4.011-.287,2.865-6.733,2.005-8.165-8.166-1.433-8.166-1.433-12.464,0-13.9,1c0,0-1.433,1.289-.86,2.435s3.152,3.438,4.727,3.438c0,0,1.285-1.12,1.372-1.83l.127-.863" transform="translate(-117.838 -132.333)" fill="#fff" stroke="#000" stroke-miterlimit="10" stroke-width="1"/>
        <path id="パス_214" data-name="パス 214" d="M235.446,240.793c.829.588.44,2.1-.064,2.753a1.039,1.039,0,0,1-1.919-.723,3.144,3.144,0,0,1,.658-1.632,1.232,1.232,0,0,1,1.081-.483,7.988,7.988,0,0,1,3.473.98c1.218.974.548,3.146-.609,3.552s-3.633-1.116-3.633-1.116" transform="translate(-143.22 -137.274)" fill="#fff" stroke="#000" stroke-miterlimit="10" stroke-width="1"/>
        <path id="パス_215" data-name="パス 215" d="M950.256,538.184c4.657,2.718,3.518,7.21,1.015,11.166-8.027,9.406-11.691.493-7.169-7.931,12.793-12.208,13.357,8.856,2.981,12.688-3.022.248-11.612-2.229-14.212-2.727a15.041,15.041,0,0,1-2.6-4.949c-.036-14.968,9.989-11.058,19.607-9.009" transform="translate(-598.018 -329.621)" fill="#fff" stroke="#000" stroke-miterlimit="10" stroke-width="1"/>
        <path id="パス_216" data-name="パス 216" d="M495.634,309.67a1.436,1.436,0,0,1,.494,2.327c-.686.7-2.009,1.334-4.554,1.334-5.683,0-3.377-.533-13.214-.315s-82.713,2.619-82.713,2.619l-7.869,1.967-5.027-1.528s-59.671-.656-74.317,0-36.284.656-45.9.656H244.172S81.985,308.2,70.839,308.2s-77.158-.656-90.71.875-1.528-5.027-1.528-5.027l91.8-.437s132.9,5.682,140.328,6.12,34.973,2.4,34.973,2.4L382.1,311.7l5.245-.218,5.027-.218,3.5.656,97.725-3.091Z" transform="translate(26.318 -178.337)" fill="#fff" stroke="#000" stroke-miterlimit="10" stroke-width="1"/>
        <path id="パス_217" data-name="パス 217" d="M1149.466,326.077l.577,1.406-.033,2.52-.59.36,5.728,1.615,7.869-1.967.905-.695a14.531,14.531,0,0,0-.131-2.883c-.2-.1-4.053-.795-4.053-.795Z" transform="translate(-741.052 -192.713)" fill="#fff" stroke="#000" stroke-miterlimit="10" stroke-width="1"/>
        <path id="パス_218" data-name="パス 218" d="M1164.9,327.364a2.754,2.754,0,0,0-1.146,2.619c.229.753.622,1.866,1.6,1.9a5.918,5.918,0,0,0,2.357-.72,3.178,3.178,0,0,0,.786-1.636c0-.753-.622-2.1-1.015-2.1S1164.9,327.364,1164.9,327.364Z" transform="translate(-750.378 -193.839)" fill="#fff" stroke="#000" stroke-miterlimit="10" stroke-width="1"/>
        <path id="パス_219" data-name="パス 219" d="M1170.032,327.911a2.134,2.134,0,0,0-.955,1.158c-.122.67.041,1.768.486,1.971s1.24.569,1.24.569a2.164,2.164,0,0,0,.63-.486,2.492,2.492,0,0,0,.528-1.544,4.271,4.271,0,0,0-.671-1.483A2.928,2.928,0,0,0,1170.032,327.911Z" transform="translate(-753.856 -194.194)" fill="#fff" stroke="#000" stroke-miterlimit="10" stroke-width="1"/>
        <line id="線_44" data-name="線 44" x2="0.128" y2="2.514" transform="translate(416.685 134.35)" fill="none" stroke="#000" stroke-miterlimit="10" stroke-width="1"/>
        <path id="パス_220" data-name="パス 220" d="M787.367,597.771a18.3,18.3,0,0,1-4.786,4.1c-3.009,1.777-19.419,3.555-21.607,3.555s-40.478-2.461-40.478-2.461-10.8-2.6-13.265-3.008-9.9.043-12.684-.972S687.7,596.2,687.7,596.2l65.428.833Z" transform="translate(-439.701 -369.311)" fill="#fff" stroke="#000" stroke-miterlimit="10" stroke-width="1"/>
        <path id="パス_221" data-name="パス 221" d="M229.108-14.565s-8.556,26.211-10.558,35.312-4.733,26.029-4.915,27.3-4.915.546-4.915.546,5.643-29.488,6.736-33.674,11.833-33.128,10.922-34.766S229.108-14.565,229.108-14.565Z" transform="translate(-127.084 32.951)" fill="#fff" stroke="#000" stroke-miterlimit="10" stroke-width="1"/>
        <path id="パス_222" data-name="パス 222" d="M517.444,168.461l-.063.625s-.564.5-.063.94,2.936.285,2.936.285l3.445-.679a.721.721,0,0,0,.542-.66l-.156-.388-.69-.313-.752-1.817V165.14l-.3-.073v-1.311l-.479-.379-.05-.807-1.539.025v.656l-.479.151-.151.2.05.933-.681.227-.025.908s-1.362,1.236-1.438,1.866S517.444,168.461,517.444,168.461Z" transform="translate(-328.363 -86.276)" fill="none" stroke="#000" stroke-miterlimit="10" stroke-width="1"/>
        <path id="パス_223" data-name="パス 223" d="M517.89,179.805l.689.358c.519.021,1.225-.062,1.681-.083a18.608,18.608,0,0,0,3.57-.809c.374-.249.075-.28.075-.28" transform="translate(-328.871 -96.994)" fill="none" stroke="#000" stroke-miterlimit="10" stroke-width="1"/>
        <path id="パス_224" data-name="パス 224" d="M524.56,168.234a11.069,11.069,0,0,0,2.648.53" transform="translate(-333.224 -89.973)" fill="none" stroke="#000" stroke-miterlimit="10" stroke-width="1"/>
        <line id="線_45" data-name="線 45" x1="1.589" y1="0.126" transform="translate(191.916 76.974)" fill="none" stroke="#000" stroke-miterlimit="10" stroke-width="1"/>
        <path id="パス_225" data-name="パス 225" d="M518.491,177.9a12.509,12.509,0,0,0,3.508.7,12.061,12.061,0,0,0,2.075-.345" transform="translate(-329.263 -96.282)" fill="none" stroke="#000" stroke-miterlimit="10" stroke-width="1"/>
        <path id="パス_226" data-name="パス 226" d="M522.364,171.944s1.893.392,2.233.392,1.358-.052,1.358-.052" transform="translate(-331.791 -92.395)" fill="none" stroke="#000" stroke-miterlimit="10" stroke-width="1"/>
        <path id="パス_227" data-name="パス 227" d="M1060.374,295.162l2.52-.36,24.478-.72,1.62,1.08h10.439l1.26-1.08,20.158.54s3.771-.906,4.405-.166,1.163,1.8.634,2.431-8.775,1.692-10.256,1.692-37.534.1-39.225,0-12.687-.846-13-.846-3.806-.74-3.806-1.586a.975.975,0,0,1,.778-.985Z" transform="translate(-682.427 -172.115)" fill="#fff" stroke="#000" stroke-miterlimit="10" stroke-width="1"/>
        <path id="パス_228" data-name="パス 228" d="M714.981,443.954c-4.651.463-7.56,15.119-2.406,18.555s25.772,3.436,25.772,3.436,114.432-2.061,124.741-2.061,91.408-3.436,96.219-4.467,18.213-2.4,18.213-2.4,4.467-6.529,3.091-11-11.34-6.529-11.34-6.529-32.361-1.029-37.982-.779-28.606,1.124-28.606,1.124l-37.475.874-7.62-.125S731.585,442.3,714.981,443.954Z" transform="translate(-454.154 -266.488)" fill="#fff" stroke="#000" stroke-miterlimit="10" stroke-width="1"/>
        <path id="パス_229" data-name="パス 229" d="M714.616,472.66c-.7-1.02.315-5.616,7.123-5.616,2.894,0,30,1.57,60.539,1.752,41.293.247,88.627-.875,88.627-.875h5.831s78.019-3.274,83.553-3.274,19.266-1.025,19.266-1.025,2.87-.615,2.665,2.254a5.691,5.691,0,0,1-1.845,4.1l-17.626.615s-19.06.82-28.488,1.23-53.7,2.664-56.976,2.664-7.788.2-7.788.2-45.7,1.025-50.214,1.025-30.128.41-30.128.41-24.389.41-29.1.41-22,.307-26.3.307S718.1,477.731,714.616,472.66Z" transform="translate(-457.145 -282.74)" fill="#fff" stroke="#000" stroke-miterlimit="10" stroke-width="1"/>
      </g>
    </g>
  </g>
</svg>
