<svg xmlns="http://www.w3.org/2000/svg" id="prefix__レイヤー_2" width="58.3" height="90.1" data-name="レイヤー 2" viewBox="0 0 58.3 90.1">
    <defs>
        <style>
            .prefix__cls-1{fill:#231815}.prefix__cls-2{fill:#fff}
        </style>
    </defs>
    <path id="prefix__長方形_52" d="M0 0H5.3V5.3H0z" class="prefix__cls-1" data-name="長方形 52" transform="translate(42.4 68.9)"/>
    <path id="prefix__長方形_53" d="M0 0H5.3V5.3H0z" class="prefix__cls-1" data-name="長方形 53" transform="translate(47.7 79.5)"/>
    <path id="prefix__長方形_54" d="M0 0H5.3V5.3H0z" class="prefix__cls-2" data-name="長方形 54" transform="translate(37.1 84.8)"/>
    <path id="prefix__長方形_55" d="M0 0H5.3V5.3H0z" class="prefix__cls-1" data-name="長方形 55" transform="translate(31.8 79.5)"/>
    <path id="prefix__長方形_56" d="M0 0H5.3V5.3H0z" class="prefix__cls-2" data-name="長方形 56" transform="translate(47.7 79.5)"/>
    <path id="prefix__長方形_57" d="M0 0H5.3V5.3H0z" class="prefix__cls-1" data-name="長方形 57" transform="translate(47.7 79.5)"/>
    <path id="prefix__長方形_58" d="M0 0H5.3V5.3H0z" class="prefix__cls-1" data-name="長方形 58" transform="translate(31.8 74.2)"/>
    <path id="prefix__長方形_59" d="M0 0H5.3V5.3H0z" class="prefix__cls-2" data-name="長方形 59" transform="translate(47.7 74.2)"/>
    <path id="prefix__長方形_60" d="M0 0H5.3V5.3H0z" class="prefix__cls-2" data-name="長方形 60" transform="translate(42.4 74.2)"/>
    <path id="prefix__長方形_61" d="M0 0H5.3V5.3H0z" class="prefix__cls-1" data-name="長方形 61" transform="translate(47.7 74.2)"/>
    <path id="prefix__長方形_62" d="M0 0H5.3V5.3H0z" class="prefix__cls-1" data-name="長方形 62" transform="translate(26.5 68.9)"/>
    <path id="prefix__長方形_63" d="M0 0H5.3V5.3H0z" class="prefix__cls-2" data-name="長方形 63" transform="translate(5.3 74.2)"/>
    <path id="prefix__長方形_64" d="M0 0H5.3V5.3H0z" class="prefix__cls-1" data-name="長方形 64" transform="translate(0 74.2)"/>
    <path id="prefix__長方形_65" d="M0 0H5.3V5.3H0z" class="prefix__cls-2" data-name="長方形 65" transform="translate(37.1 68.9)"/>
    <path id="prefix__長方形_66" d="M0 0H5.3V5.3H0z" class="prefix__cls-1" data-name="長方形 66" transform="translate(21.2 58.3)"/>
    <path id="prefix__長方形_67" d="M0 0H5.3V5.3H0z" class="prefix__cls-2" data-name="長方形 67" transform="translate(10.6 68.9)"/>
    <path id="prefix__長方形_68" d="M0 0H5.3V5.3H0z" class="prefix__cls-1" data-name="長方形 68" transform="translate(5.3 74.2)"/>
    <path id="prefix__長方形_69" d="M0 0H5.3V5.3H0z" class="prefix__cls-1" data-name="長方形 69" transform="translate(0 68.9)"/>
    <path id="prefix__長方形_70" d="M0 0H5.3V5.3H0z" class="prefix__cls-2" data-name="長方形 70" transform="translate(42.4 63.6)"/>
    <path id="prefix__長方形_71" d="M0 0H5.3V5.3H0z" class="prefix__cls-2" data-name="長方形 71" transform="translate(37.1 63.6)"/>
    <path id="prefix__長方形_72" d="M0 0H5.3V5.3H0z" class="prefix__cls-1" data-name="長方形 72" transform="translate(42.4 63.6)"/>
    <path id="prefix__長方形_73" d="M0 0H5.3V5.3H0z" class="prefix__cls-1" data-name="長方形 73" transform="translate(21.2 58.3)"/>
    <path id="prefix__長方形_74" d="M0 0H5.3V5.3H0z" class="prefix__cls-1" data-name="長方形 74" transform="translate(15.9 63.6)"/>
    <path id="prefix__長方形_75" d="M0 0H5.3V5.3H0z" class="prefix__cls-1" data-name="長方形 75" transform="translate(10.6 68.9)"/>
    <path id="prefix__長方形_76" d="M0 0H5.3V5.3H0z" class="prefix__cls-2" data-name="長方形 76" transform="translate(5.3 63.6)"/>
    <path id="prefix__長方形_77" d="M0 0H5.3V5.3H0z" class="prefix__cls-1" data-name="長方形 77" transform="translate(0 63.6)"/>
    <path id="prefix__長方形_78" d="M0 0H5.3V5.3H0z" class="prefix__cls-2" data-name="長方形 78" transform="translate(37.1 58.3)"/>
    <path id="prefix__長方形_79" d="M0 0H5.3V5.3H0z" class="prefix__cls-1" data-name="長方形 79" transform="translate(37.1 58.3)"/>
    <path id="prefix__長方形_80" d="M0 0H5.3V5.3H0z" class="prefix__cls-2" data-name="長方形 80" transform="translate(26.5 58.3)"/>
    <path id="prefix__長方形_81" d="M0 0H5.3V5.3H0z" class="prefix__cls-2" data-name="長方形 81" transform="translate(15.9 58.3)"/>
    <path id="prefix__長方形_82" d="M0 0H5.3V5.3H0z" class="prefix__cls-2" data-name="長方形 82" transform="translate(10.6 58.3)"/>
    <path id="prefix__長方形_83" d="M0 0H5.3V5.3H0z" class="prefix__cls-2" data-name="長方形 83" transform="translate(5.3 58.3)"/>
    <path id="prefix__長方形_84" d="M0 0H5.3V5.3H0z" class="prefix__cls-1" data-name="長方形 84" transform="translate(0 58.3)"/>
    <path id="prefix__長方形_85" d="M0 0H5.3V5.3H0z" class="prefix__cls-1" data-name="長方形 85" transform="translate(53 53)"/>
    <path id="prefix__長方形_86" d="M0 0H5.3V5.3H0z" class="prefix__cls-1" data-name="長方形 86" transform="translate(47.7 53)"/>
    <path id="prefix__長方形_87" d="M0 0H5.3V5.3H0z" class="prefix__cls-1" data-name="長方形 87" transform="translate(42.4 53)"/>
    <path id="prefix__長方形_88" d="M0 0H5.3V5.3H0z" class="prefix__cls-1" data-name="長方形 88" transform="translate(37.1 53)"/>
    <path id="prefix__長方形_89" d="M0 0H5.3V5.3H0z" class="prefix__cls-2" data-name="長方形 89" transform="translate(31.8 53)"/>
    <path id="prefix__長方形_90" d="M0 0H5.3V5.3H0z" class="prefix__cls-2" data-name="長方形 90" transform="translate(26.5 53)"/>
    <path id="prefix__長方形_91" d="M0 0H5.3V5.3H0z" class="prefix__cls-2" data-name="長方形 91" transform="translate(21.2 53)"/>
    <path id="prefix__長方形_92" d="M0 0H5.3V5.3H0z" class="prefix__cls-2" data-name="長方形 92" transform="translate(15.9 53)"/>
    <path id="prefix__長方形_93" d="M0 0H5.3V5.3H0z" class="prefix__cls-2" data-name="長方形 93" transform="translate(10.6 53)"/>
    <path id="prefix__長方形_94" d="M0 0H5.3V5.3H0z" class="prefix__cls-2" data-name="長方形 94" transform="translate(5.3 53)"/>
    <path id="prefix__長方形_95" d="M0 0H5.3V5.3H0z" class="prefix__cls-1" data-name="長方形 95" transform="translate(0 53)"/>
    <path id="prefix__長方形_96" d="M0 0H5.3V5.3H0z" class="prefix__cls-2" data-name="長方形 96" transform="translate(53 47.7)"/>
    <path id="prefix__長方形_97" d="M0 0H5.3V5.3H0z" class="prefix__cls-1" data-name="長方形 97" transform="translate(53 47.7)"/>
    <path id="prefix__長方形_98" d="M0 0H5.3V5.3H0z" class="prefix__cls-2" data-name="長方形 98" transform="translate(42.4 47.7)"/>
    <path id="prefix__長方形_99" d="M0 0H5.3V5.3H0z" class="prefix__cls-2" data-name="長方形 99" transform="translate(37.1 47.7)"/>
    <path id="prefix__長方形_100" d="M0 0H5.3V5.3H0z" class="prefix__cls-2" data-name="長方形 100" transform="translate(31.8 47.7)"/>
    <path id="prefix__長方形_101" d="M0 0H5.3V5.3H0z" class="prefix__cls-2" data-name="長方形 101" transform="translate(26.5 47.7)"/>
    <path id="prefix__長方形_102" d="M0 0H5.3V5.3H0z" class="prefix__cls-2" data-name="長方形 102" transform="translate(21.2 47.7)"/>
    <path id="prefix__長方形_103" d="M0 0H5.3V5.3H0z" class="prefix__cls-2" data-name="長方形 103" transform="translate(15.9 47.7)"/>
    <path id="prefix__長方形_104" d="M0 0H5.3V5.3H0z" class="prefix__cls-2" data-name="長方形 104" transform="translate(10.6 47.7)"/>
    <path id="prefix__長方形_105" d="M0 0H5.3V5.3H0z" class="prefix__cls-2" data-name="長方形 105" transform="translate(5.3 47.7)"/>
    <path id="prefix__長方形_106" d="M0 0H5.3V5.3H0z" class="prefix__cls-1" data-name="長方形 106" transform="translate(0 47.7)"/>
    <path id="prefix__長方形_107" d="M0 0H5.3V5.3H0z" class="prefix__cls-2" data-name="長方形 107" transform="translate(47.7 42.4)"/>
    <path id="prefix__長方形_108" d="M0 0H5.3V5.3H0z" class="prefix__cls-1" data-name="長方形 108" transform="translate(47.7 42.4)"/>
    <path id="prefix__長方形_109" d="M0 0H5.3V5.3H0z" class="prefix__cls-2" data-name="長方形 109" transform="translate(37.1 42.4)"/>
    <path id="prefix__長方形_110" d="M0 0H5.3V5.3H0z" class="prefix__cls-2" data-name="長方形 110" transform="translate(31.8 42.4)"/>
    <path id="prefix__長方形_111" d="M0 0H5.3V5.3H0z" class="prefix__cls-2" data-name="長方形 111" transform="translate(26.5 42.4)"/>
    <path id="prefix__長方形_112" d="M0 0H5.3V5.3H0z" class="prefix__cls-2" data-name="長方形 112" transform="translate(21.2 42.4)"/>
    <path id="prefix__長方形_113" d="M0 0H5.3V5.3H0z" class="prefix__cls-2" data-name="長方形 113" transform="translate(15.9 42.4)"/>
    <path id="prefix__長方形_114" d="M0 0H5.3V5.3H0z" class="prefix__cls-2" data-name="長方形 114" transform="translate(10.6 42.4)"/>
    <path id="prefix__長方形_115" d="M0 0H5.3V5.3H0z" class="prefix__cls-2" data-name="長方形 115" transform="translate(5.3 42.4)"/>
    <path id="prefix__長方形_116" d="M0 0H5.3V5.3H0z" class="prefix__cls-1" data-name="長方形 116" transform="translate(0 42.4)"/>
    <path id="prefix__長方形_117" d="M0 0H5.3V5.3H0z" class="prefix__cls-2" data-name="長方形 117" transform="translate(42.4 37.1)"/>
    <path id="prefix__長方形_118" d="M0 0H5.3V5.3H0z" class="prefix__cls-1" data-name="長方形 118" transform="translate(42.4 37.1)"/>
    <path id="prefix__長方形_119" d="M0 0H5.3V5.3H0z" class="prefix__cls-2" data-name="長方形 119" transform="translate(31.8 37.1)"/>
    <path id="prefix__長方形_120" d="M0 0H5.3V5.3H0z" class="prefix__cls-2" data-name="長方形 120" transform="translate(26.5 37.1)"/>
    <path id="prefix__長方形_121" d="M0 0H5.3V5.3H0z" class="prefix__cls-2" data-name="長方形 121" transform="translate(21.2 37.1)"/>
    <path id="prefix__長方形_122" d="M0 0H5.3V5.3H0z" class="prefix__cls-2" data-name="長方形 122" transform="translate(15.9 37.1)"/>
    <path id="prefix__長方形_123" d="M0 0H5.3V5.3H0z" class="prefix__cls-2" data-name="長方形 123" transform="translate(10.6 37.1)"/>
    <path id="prefix__長方形_124" d="M0 0H5.3V5.3H0z" class="prefix__cls-2" data-name="長方形 124" transform="translate(5.3 37.1)"/>
    <path id="prefix__長方形_125" d="M0 0H5.3V5.3H0z" class="prefix__cls-1" data-name="長方形 125" transform="translate(0 37.1)"/>
    <path id="prefix__長方形_126" d="M0 0H5.3V5.3H0z" class="prefix__cls-2" data-name="長方形 126" transform="translate(37.1 31.8)"/>
    <path id="prefix__長方形_127" d="M0 0H5.3V5.3H0z" class="prefix__cls-1" data-name="長方形 127" transform="translate(37.1 31.8)"/>
    <path id="prefix__長方形_128" d="M0 0H5.3V5.3H0z" class="prefix__cls-2" data-name="長方形 128" transform="translate(26.5 31.8)"/>
    <path id="prefix__長方形_129" d="M0 0H5.3V5.3H0z" class="prefix__cls-2" data-name="長方形 129" transform="translate(21.2 31.8)"/>
    <path id="prefix__長方形_130" d="M0 0H5.3V5.3H0z" class="prefix__cls-2" data-name="長方形 130" transform="translate(15.9 31.8)"/>
    <path id="prefix__長方形_131" d="M0 0H5.3V5.3H0z" class="prefix__cls-2" data-name="長方形 131" transform="translate(10.6 31.8)"/>
    <path id="prefix__長方形_132" d="M0 0H5.3V5.3H0z" class="prefix__cls-2" data-name="長方形 132" transform="translate(5.3 31.8)"/>
    <path id="prefix__長方形_133" d="M0 0H5.3V5.3H0z" class="prefix__cls-1" data-name="長方形 133" transform="translate(0 31.8)"/>
    <path id="prefix__長方形_134" d="M0 0H5.3V5.3H0z" class="prefix__cls-2" data-name="長方形 134" transform="translate(31.8 26.5)"/>
    <path id="prefix__長方形_135" d="M0 0H5.3V5.3H0z" class="prefix__cls-1" data-name="長方形 135" transform="translate(31.8 26.5)"/>
    <path id="prefix__長方形_136" d="M0 0H5.3V5.3H0z" class="prefix__cls-2" data-name="長方形 136" transform="translate(21.2 26.5)"/>
    <path id="prefix__長方形_137" d="M0 0H5.3V5.3H0z" class="prefix__cls-2" data-name="長方形 137" transform="translate(15.9 26.5)"/>
    <path id="prefix__長方形_138" d="M0 0H5.3V5.3H0z" class="prefix__cls-2" data-name="長方形 138" transform="translate(10.6 26.5)"/>
    <path id="prefix__長方形_139" d="M0 0H5.3V5.3H0z" class="prefix__cls-2" data-name="長方形 139" transform="translate(5.3 26.5)"/>
    <path id="prefix__長方形_140" d="M0 0H5.3V5.3H0z" class="prefix__cls-1" data-name="長方形 140" transform="translate(0 26.5)"/>
    <path id="prefix__長方形_141" d="M0 0H5.3V5.3H0z" class="prefix__cls-2" data-name="長方形 141" transform="translate(26.5 21.2)"/>
    <path id="prefix__長方形_142" d="M0 0H5.3V5.3H0z" class="prefix__cls-1" data-name="長方形 142" transform="translate(26.5 21.2)"/>
    <path id="prefix__長方形_143" d="M0 0H5.3V5.3H0z" class="prefix__cls-2" data-name="長方形 143" transform="translate(15.9 21.2)"/>
    <path id="prefix__長方形_144" d="M0 0H5.3V5.3H0z" class="prefix__cls-2" data-name="長方形 144" transform="translate(10.6 21.2)"/>
    <path id="prefix__長方形_145" d="M0 0H5.3V5.3H0z" class="prefix__cls-2" data-name="長方形 145" transform="translate(5.3 21.2)"/>
    <path id="prefix__長方形_146" d="M0 0H5.3V5.3H0z" class="prefix__cls-1" data-name="長方形 146" transform="translate(0 21.2)"/>
    <path id="prefix__長方形_147" d="M0 0H5.3V5.3H0z" class="prefix__cls-2" data-name="長方形 147" transform="translate(21.2 15.9)"/>
    <path id="prefix__長方形_148" d="M0 0H5.3V5.3H0z" class="prefix__cls-1" data-name="長方形 148" transform="translate(21.2 15.9)"/>
    <path id="prefix__長方形_149" d="M0 0H5.3V5.3H0z" class="prefix__cls-2" data-name="長方形 149" transform="translate(10.6 15.9)"/>
    <path id="prefix__長方形_150" d="M0 0H5.3V5.3H0z" class="prefix__cls-2" data-name="長方形 150" transform="translate(5.3 15.9)"/>
    <path id="prefix__長方形_151" d="M0 0H5.3V5.3H0z" class="prefix__cls-1" data-name="長方形 151" transform="translate(0 15.9)"/>
    <path id="prefix__長方形_152" d="M0 0H5.3V5.3H0z" class="prefix__cls-2" data-name="長方形 152" transform="translate(15.9 10.6)"/>
    <path id="prefix__長方形_153" d="M0 0H5.3V5.3H0z" class="prefix__cls-1" data-name="長方形 153" transform="translate(15.9 10.6)"/>
    <path id="prefix__長方形_154" d="M0 0H5.3V5.3H0z" class="prefix__cls-2" data-name="長方形 154" transform="translate(5.3 10.6)"/>
    <path id="prefix__長方形_155" d="M0 0H5.3V5.3H0z" class="prefix__cls-1" data-name="長方形 155" transform="translate(0 10.6)"/>
    <path id="prefix__長方形_156" d="M0 0H5.3V5.3H0z" class="prefix__cls-2" data-name="長方形 156" transform="translate(10.6 5.3)"/>
    <path id="prefix__長方形_157" d="M0 0H5.3V5.3H0z" class="prefix__cls-1" data-name="長方形 157" transform="translate(10.6 5.3)"/>
    <path id="prefix__長方形_158" d="M0 0H5.3V5.3H0z" class="prefix__cls-1" data-name="長方形 158" transform="translate(5.3)"/>
    <path id="prefix__長方形_159" d="M0 0H5.3V5.3H0z" class="prefix__cls-1" data-name="長方形 159" transform="translate(0 5.3)"/>
    <path id="prefix__長方形_160" d="M0 0H5.3V5.3H0z" class="prefix__cls-1" data-name="長方形 160"/>
    <path id="prefix__長方形_161" d="M0 0H5.3V5.3H0z" class="prefix__cls-1" data-name="長方形 161" transform="translate(37.1 84.8)"/>
    <path id="prefix__長方形_162" d="M0 0H5.3V5.3H0z" class="prefix__cls-2" data-name="長方形 162" transform="translate(37.1 79.5)"/>
    <path id="prefix__長方形_163" d="M0 0H5.3V5.3H0z" class="prefix__cls-1" data-name="長方形 163" transform="translate(42.4 84.8)"/>
    <path id="prefix__長方形_164" d="M0 0H5.3V5.3H0z" class="prefix__cls-1" data-name="長方形 164" transform="translate(26.5 63.6)"/>
    <path id="prefix__長方形_165" d="M0 0H5.3V5.3H0z" class="prefix__cls-2" data-name="長方形 165" transform="translate(47.7 47.7)"/>
    <path id="prefix__長方形_166" d="M0 0H5.3V5.3H0z" class="prefix__cls-2" data-name="長方形 166" transform="translate(31.8 58.3)"/>
    <path id="prefix__長方形_167" d="M0 0H5.3V5.3H0z" class="prefix__cls-2" data-name="長方形 167" transform="translate(10.6 63.6)"/>
    <path id="prefix__長方形_168" d="M0 0H5.3V5.3H0z" class="prefix__cls-2" data-name="長方形 168" transform="translate(5.3 68.9)"/>
    <path id="prefix__長方形_169" d="M0 0H5.3V5.3H0z" class="prefix__cls-2" data-name="長方形 169" transform="translate(5.3 5.3)"/>
    <path id="prefix__長方形_170" d="M0 0H5.3V5.3H0z" class="prefix__cls-2" data-name="長方形 170" transform="translate(10.6 10.6)"/>
    <path id="prefix__長方形_171" d="M0 0H5.3V5.3H0z" class="prefix__cls-2" data-name="長方形 171" transform="translate(15.9 15.9)"/>
    <path id="prefix__長方形_172" d="M0 0H5.3V5.3H0z" class="prefix__cls-2" data-name="長方形 172" transform="translate(21.2 21.2)"/>
    <path id="prefix__長方形_173" d="M0 0H5.3V5.3H0z" class="prefix__cls-2" data-name="長方形 173" transform="translate(26.5 26.5)"/>
    <path id="prefix__長方形_174" d="M0 0H5.3V5.3H0z" class="prefix__cls-2" data-name="長方形 174" transform="translate(31.8 31.8)"/>
    <path id="prefix__長方形_175" d="M0 0H5.3V5.3H0z" class="prefix__cls-2" data-name="長方形 175" transform="translate(37.1 37.1)"/>
    <path id="prefix__長方形_176" d="M0 0H5.3V5.3H0z" class="prefix__cls-2" data-name="長方形 176" transform="translate(42.4 42.4)"/>
    <path id="prefix__長方形_177" d="M0 0H5.3V5.3H0z" class="prefix__cls-2" data-name="長方形 177" transform="translate(31.8 63.6)"/>
    <path id="prefix__長方形_178" d="M0 0H5.3V5.3H0z" class="prefix__cls-2" data-name="長方形 178" transform="translate(31.8 68.9)"/>
    <path id="prefix__長方形_179" d="M0 0H5.3V5.3H0z" class="prefix__cls-2" data-name="長方形 179" transform="translate(37.1 74.2)"/>
    <path id="prefix__長方形_180" d="M0 0H5.3V5.3H0z" class="prefix__cls-2" data-name="長方形 180" transform="translate(42.4 79.5)"/>
</svg>
