<svg xmlns="http://www.w3.org/2000/svg" width="24.352" height="20.651" viewBox="0 0 24.352 20.651">
    <g id="グループ_6" data-name="グループ 6" transform="translate(-914.193 -47.515)">
        <path id="パス_11" data-name="パス 11" d="M939.268,67.062s2.97-1.328,2.97-3.384-.952-3.707-.742-5.543,2.518-3.251,1.67-4.071-2.518-1.648-3.288-.664-.449,5.417-1.417,4.736-2.374-1.448-2.374-1.448l-4.477-5.61s-1.8.515-1.441,1.417,4.359,5.133,4.359,5.133l-6.594-5.882s-1.98.219-.809,1.654,6.577,6.335,6.1,6.478-1.176.856-1.612,0-5.023-4.917-5.023-4.917-2.013.26-.975,1.727,6.886,5.5,6,5.84-3.827-2.941-4.484-2.65-2.039-.354-.539,1.465,7.042,6.911,7.941,6.911A35.693,35.693,0,0,0,939.268,67.062Z" transform="translate(-5.26 -0.587)" fill="none" stroke="#707070" stroke-width="1" />
        <path id="パス_12" data-name="パス 12" d="M917.429,61.379a11.22,11.22,0,0,1,0-3.478,4.627,4.627,0,0,1,1.212-1.649" transform="translate(0.32 -0.764)" fill="none" stroke="#707070" stroke-width="1" />
        <path id="パス_13" data-name="パス 13" d="M915.393,60.866l-.688-3.679.688-2.678,2.149-.952" transform="translate(0 0.559)" fill="none" stroke="#707070" stroke-width="1" />
        <path id="パス_14" data-name="パス 14" d="M933.075,49.648l2.754.99s1.4,2.167.969,2.663" transform="translate(-3.502 -0.314)" fill="none" stroke="#707070" stroke-width="1" />
        <path id="パス_15" data-name="パス 15" d="M935.425,48l2.357.6.934,2.1" transform="translate(-3.95)" fill="none" stroke="#707070" stroke-width="1" />
    </g>
</svg>
