<svg width="445" height="482" viewBox="0 0 445 482" fill="none" xmlns="http://www.w3.org/2000/svg">
<path d="M1.5 480.5L192 261.5L204 277L28 480.5H1.5Z" fill="#303030"/>
<path d="M246.5 195.5L414.5 1H439.5L258.5 210.009L246.5 195.5Z" fill="#303030"/>
<path d="M1.5 480.5L192 261.5L204 277L28 480.5H1.5Z" stroke="#303030" stroke-width="2" stroke-linejoin="round"/>
<path d="M246.5 195.5L414.5 1H439.5L258.5 210.009L246.5 195.5Z" stroke="#303030" stroke-width="2" stroke-linejoin="round"/>
<path d="M20.5 15L11.5557 10.5279L12.4103 20.8785L20.5 15ZM336 468L327.913 473.882C329.794 476.469 332.801 478 336 478V468ZM436.5 468V478L444.684 462.253L436.5 468ZM123.5 12L131.666 6.22813L123.5 2V12ZM252 352.5L243.628 357.969C243.72 358.109 243.814 358.247 243.913 358.382L252 352.5ZM129.5 165L137.872 159.531C137.781 159.392 137.687 159.255 137.59 159.121L129.5 165ZM191 107.5L199.292 101.911C199.251 101.849 199.209 101.789 199.166 101.728L191 107.5ZM374 379L365.708 384.589C365.743 384.642 365.78 384.695 365.816 384.747L374 379ZM22 12V2L13.0557 7.52786L22 12ZM336 478H436.5V458H336V478ZM243.913 358.382L327.913 473.882L344.087 462.118L260.087 346.618L243.913 358.382ZM12.4103 20.8785L121.41 170.879L137.59 159.121L28.5897 9.12149L12.4103 20.8785ZM121.128 170.469L243.628 357.969L260.372 347.031L137.872 159.531L121.128 170.469ZM199.166 101.728L131.666 6.22813L115.334 17.7719L182.834 113.272L199.166 101.728ZM444.684 462.253L382.184 373.253L365.816 384.747L428.316 473.747L444.684 462.253ZM382.292 373.411L199.292 101.911L182.708 113.089L365.708 384.589L382.292 373.411ZM123.5 2H22V22H123.5V2ZM13.0557 7.52786L11.5557 10.5279L29.4443 19.4721L30.9443 16.4721L13.0557 7.52786Z" fill="#303030"/>
</svg>
