<svg xmlns="http://www.w3.org/2000/svg" xmlns:xlink="http://www.w3.org/1999/xlink" width="404" height="458.5" viewBox="0 0 404 458.5"><defs><clipPath id="a"><rect width="397" height="458" fill="none"/></clipPath><clipPath id="b"><rect width="437" height="404" fill="none"/></clipPath><linearGradient id="c" x1="0.5" x2="0.5" y2="1" gradientUnits="objectBoundingBox"><stop offset="0" stop-color="#ff000c"/><stop offset="0.123" stop-color="#ff1ef3"/><stop offset="0.246" stop-color="#2421ff"/><stop offset="0.369" stop-color="#0050ff"/><stop offset="0.507" stop-color="#00fcff"/><stop offset="0.64" stop-color="#00fe24"/><stop offset="0.768" stop-color="#befe00"/><stop offset="0.882" stop-color="#fff300"/><stop offset="1" stop-color="#ff0c00"/></linearGradient></defs><g transform="translate(-470 -187.5)"><g transform="translate(470 188)" stroke="#fff" stroke-width="1"><rect width="404" height="458" stroke="none"/><rect x="0.5" y="0.5" width="403" height="457" fill="none"/></g><g transform="translate(470 187.5)" clip-path="url(#a)"><g transform="translate(-140 -201.5)"><line y2="458" transform="translate(140.5 201.5)" fill="none" stroke="#fff" stroke-width="1"/></g><g transform="translate(-119 -201.5)"><line y2="458" transform="translate(140.5 201.5)" fill="none" stroke="#fff" stroke-width="1"/></g><g transform="translate(-98 -201.5)"><line y2="458" transform="translate(140.5 201.5)" fill="none" stroke="#fff" stroke-width="1"/></g><g transform="translate(-77 -201.5)"><line y2="458" transform="translate(140.5 201.5)" fill="none" stroke="#fff" stroke-width="1"/></g><g transform="translate(-56 -201.5)"><line y2="458" transform="translate(140.5 201.5)" fill="none" stroke="#fff" stroke-width="1"/></g><g transform="translate(-35 -201.5)"><line y2="458" transform="translate(140.5 201.5)" fill="none" stroke="#fff" stroke-width="1"/></g><g transform="translate(-14 -201.5)"><line y2="458" transform="translate(140.5 201.5)" fill="none" stroke="#fff" stroke-width="1"/></g><g transform="translate(7 -201.5)"><line y2="458" transform="translate(140.5 201.5)" fill="none" stroke="#fff" stroke-width="1"/></g><g transform="translate(28 -201.5)"><line y2="458" transform="translate(140.5 201.5)" fill="none" stroke="#fff" stroke-width="1"/></g><g transform="translate(49 -201.5)"><line y2="458" transform="translate(140.5 201.5)" fill="none" stroke="#fff" stroke-width="1"/></g><g transform="translate(70 -201.5)"><line y2="458" transform="translate(140.5 201.5)" fill="none" stroke="#fff" stroke-width="1"/></g><g transform="translate(91 -201.5)"><line y2="458" transform="translate(140.5 201.5)" fill="none" stroke="#fff" stroke-width="1"/></g><g transform="translate(112 -201.5)"><line y2="458" transform="translate(140.5 201.5)" fill="none" stroke="#fff" stroke-width="1"/></g><g transform="translate(133 -201.5)"><line y2="458" transform="translate(140.5 201.5)" fill="none" stroke="#fff" stroke-width="1"/></g><g transform="translate(154 -201.5)"><line y2="458" transform="translate(140.5 201.5)" fill="none" stroke="#fff" stroke-width="1"/></g><g transform="translate(175 -201.5)"><line y2="458" transform="translate(140.5 201.5)" fill="none" stroke="#fff" stroke-width="1"/></g><g transform="translate(196 -201.5)"><line y2="458" transform="translate(140.5 201.5)" fill="none" stroke="#fff" stroke-width="1"/></g><g transform="translate(217 -201.5)"><line y2="458" transform="translate(140.5 201.5)" fill="none" stroke="#fff" stroke-width="1"/></g><g transform="translate(238 -201.5)"><line y2="458" transform="translate(140.5 201.5)" fill="none" stroke="#fff" stroke-width="1"/></g></g><g transform="translate(874 208.5) rotate(90)" clip-path="url(#b)"><g transform="translate(-140 -201.5)"><line y2="458" transform="translate(140.5 201.5)" fill="none" stroke="#fff" stroke-width="1"/></g><g transform="translate(-119 -201.5)"><line y2="458" transform="translate(140.5 201.5)" fill="none" stroke="#fff" stroke-width="1"/></g><g transform="translate(-98 -201.5)"><line y2="458" transform="translate(140.5 201.5)" fill="none" stroke="#fff" stroke-width="1"/></g><g transform="translate(-77 -201.5)"><line y2="458" transform="translate(140.5 201.5)" fill="none" stroke="#fff" stroke-width="1"/></g><g transform="translate(-56 -201.5)"><line y2="458" transform="translate(140.5 201.5)" fill="none" stroke="#fff" stroke-width="1"/></g><g transform="translate(-35 -201.5)"><line y2="458" transform="translate(140.5 201.5)" fill="none" stroke="#fff" stroke-width="1"/></g><g transform="translate(-14 -201.5)"><line y2="458" transform="translate(140.5 201.5)" fill="none" stroke="#fff" stroke-width="1"/></g><g transform="translate(7 -201.5)"><line y2="458" transform="translate(140.5 201.5)" fill="none" stroke="#fff" stroke-width="1"/></g><g transform="translate(28 -201.5)"><line y2="458" transform="translate(140.5 201.5)" fill="none" stroke="#fff" stroke-width="1"/></g><g transform="translate(49 -201.5)"><line y2="458" transform="translate(140.5 201.5)" fill="none" stroke="#fff" stroke-width="1"/></g><g transform="translate(70 -201.5)"><line y2="458" transform="translate(140.5 201.5)" fill="none" stroke="#fff" stroke-width="1"/></g><g transform="translate(91 -201.5)"><line y2="458" transform="translate(140.5 201.5)" fill="none" stroke="#fff" stroke-width="1"/></g><g transform="translate(112 -201.5)"><line y2="458" transform="translate(140.5 201.5)" fill="none" stroke="#fff" stroke-width="1"/></g><g transform="translate(133 -201.5)"><line y2="458" transform="translate(140.5 201.5)" fill="none" stroke="#fff" stroke-width="1"/></g><g transform="translate(154 -201.5)"><line y2="458" transform="translate(140.5 201.5)" fill="none" stroke="#fff" stroke-width="1"/></g><g transform="translate(175 -201.5)"><line y2="458" transform="translate(140.5 201.5)" fill="none" stroke="#fff" stroke-width="1"/></g><g transform="translate(196 -201.5)"><line y2="458" transform="translate(140.5 201.5)" fill="none" stroke="#fff" stroke-width="1"/></g><g transform="translate(217 -201.5)"><line y2="458" transform="translate(140.5 201.5)" fill="none" stroke="#fff" stroke-width="1"/></g><g transform="translate(238 -201.5)"><line y2="458" transform="translate(140.5 201.5)" fill="none" stroke="#fff" stroke-width="1"/></g><g transform="translate(259 -201.5)"><line y2="458" transform="translate(140.5 201.5)" fill="none" stroke="#fff" stroke-width="1"/></g><g transform="translate(280 -201.5)"><line y2="458" transform="translate(140.5 201.5)" fill="none" stroke="#fff" stroke-width="1"/></g></g><rect width="18" height="199" transform="translate(489.5 259.5) rotate(-90)" fill="url(#c)"/><text transform="translate(493 270)" fill="#fff" font-size="40" font-family="Escrow-Semibold, Escrow" font-weight="600"><tspan x="0" y="32">HQ VISION</tspan></text></g></svg>